<?xml version="1.0" standalone="no"?>
<!DOCTYPE svg PUBLIC "-//W3C//DTD SVG 20010904//EN"
 "http://www.w3.org/TR/2001/REC-SVG-20010904/DTD/svg10.dtd">
<svg version="1.0" xmlns="http://www.w3.org/2000/svg"
 width="121.000000pt" height="341.000000pt" viewBox="0 0 121.000000 341.000000"
 preserveAspectRatio="xMidYMid meet">

<g transform="translate(0.000000,341.000000) scale(0.100000,-0.100000)"
fill="currentColor" stroke="none">
<path d="M514 3323 c-14 -32 -36 -84 -50 -115 l-24 -57 0 -661 0 -660 165 0
165 0 0 663 -1 662 -47 110 -48 110 -67 3 -67 3 -26 -58z m156 -613 l0 -630
-27 -6 c-61 -16 -58 -47 -61 640 l-2 626 45 0 45 0 0 -630z m-139 -843 c-29
-29 -31 14 -31 668 0 610 1 668 18 707 16 42 17 20 20 -661 1 -419 -2 -709 -7
-714z"/>
<path d="M462 1660 c-199 -52 -362 -208 -421 -404 -20 -65 -21 -90 -21 -535
l0 -466 24 -52 c31 -65 95 -131 161 -163 l50 -25 350 0 350 0 50 25 c67 33
131 99 163 168 l27 57 0 455 c0 503 0 500 -68 640 -41 84 -158 204 -244 248
-132 69 -284 88 -421 52z m226 -195 c54 -58 38 -145 -32 -179 -45 -21 -72 -20
-111 4 -79 49 -67 174 20 211 36 15 88 0 123 -36z m226 -347 c22 -20 30 -47
60 -198 43 -220 44 -294 5 -500 -36 -188 -45 -217 -69 -230 -25 -13 -585 -13
-610 0 -24 13 -33 42 -69 235 -38 198 -37 291 8 515 44 218 11 200 366 200
280 0 284 0 309 -22z"/>
<path d="M329 1078 c-10 -32 -75 -375 -72 -380 2 -5 159 -8 348 -8 189 0 346
3 348 8 3 4 -12 90 -33 192 l-37 185 -276 3 c-153 1 -277 1 -278 0z m325 -69
c19 -15 26 -30 26 -54 0 -20 6 -35 15 -39 13 -5 15 -21 13 -88 l-3 -83 -100 0
-100 0 -3 83 c-2 67 0 83 13 88 9 4 15 18 15 36 0 36 40 78 73 78 13 0 36 -9
51 -21z"/>
<path d="M582 828 c2 -15 10 -23 23 -23 13 0 21 8 23 23 3 18 -1 22 -23 22
-22 0 -26 -4 -23 -22z"/>
<path d="M258 619 c-8 -23 67 -370 82 -379 24 -15 527 -13 537 2 11 17 82 371
76 381 -7 12 -691 9 -695 -4z m397 -64 c30 -29 33 -65 6 -65 -10 0 -21 9 -24
20 -12 45 -67 31 -67 -16 0 -22 4 -24 58 -24 31 0 63 -4 70 -9 9 -5 12 -30 10
-87 l-3 -79 -100 0 -100 0 -3 79 c-2 64 0 81 13 88 8 5 15 22 15 39 0 37 39
79 75 79 14 0 37 -11 50 -25z"/>
</g>
</svg>
