<svg version="1.1" id="Layer_1" xmlns="http://www.w3.org/2000/svg" xmlns:xlink="http://www.w3.org/1999/xlink" x="0px" y="0px"
	 width="100%" viewBox="0 0 600 518" enable-background="new 0 0 600 518" xml:space="preserve">
<path fill="#FFFFFF" opacity="1.000000" stroke="none" 
	d="
M296.000000,1.000000 
	C298.041656,1.000000 300.083344,1.000000 302.562622,1.467140 
	C303.000336,5.766166 303.184570,9.609826 302.940582,13.426109 
	C302.754486,16.337490 304.017517,17.463278 306.655548,18.026117 
	C314.056122,19.605061 321.535278,20.963146 328.779968,23.098581 
	C353.080414,30.261353 371.263824,45.196884 381.451965,68.378563 
	C386.783844,80.510513 389.649353,93.726410 393.799744,106.999657 
	C395.121613,106.999657 397.604645,106.999657 400.087677,106.999657 
	C402.689331,106.999657 405.290985,106.999657 408.589142,106.999657 
	C407.625305,102.280174 406.808228,98.318741 406.007874,94.353920 
	C400.572632,67.428940 389.787689,43.500935 368.060150,25.505533 
	C356.896454,16.259420 344.427063,9.716886 330.453979,5.998799 
	C323.984039,4.277228 317.485535,2.662932 311.000000,0.999999 
	C407.612213,1.000000 504.224457,1.000000 601.000000,1.000000 
	C601.000000,163.020859 601.000000,325.041779 600.649414,487.458923 
	C597.061218,481.069305 591.746948,478.179688 584.077820,479.035095 
	C577.068481,479.816956 570.773743,487.208130 571.094666,494.279816 
	C571.481201,502.799500 577.483643,508.584961 585.454590,509.080292 
	C592.925781,509.544556 597.568115,506.017883 601.000000,500.000000 
	C601.000000,506.327789 601.000000,512.655579 601.000000,519.000000 
	C441.312439,519.000000 281.624878,519.000000 121.556183,518.635742 
	C124.373016,513.902527 123.705910,511.781525 118.364807,509.336761 
	C125.334557,507.096100 127.942574,504.846680 129.371735,498.816986 
	C126.427437,500.297150 124.180214,501.274475 122.085419,502.510223 
	C117.016617,505.500366 111.898186,505.363708 108.372505,500.987366 
	C105.075546,496.894897 105.287392,490.205353 108.649460,486.749756 
	C111.995644,483.310608 118.378044,482.896179 122.190918,485.537170 
	C124.210320,486.935913 126.664108,487.707520 129.869202,489.204834 
	C127.753677,481.953217 121.195732,478.115479 113.504036,479.017639 
	C108.212891,479.638245 102.224892,484.901154 101.090553,490.196350 
	C99.617676,497.071899 102.574379,503.712219 108.392456,507.067017 
	C111.041801,508.594666 115.418785,508.634460 114.200630,513.537659 
	C115.987732,513.808655 117.392403,514.021667 118.797073,514.234619 
	C117.416206,515.446472 115.791168,515.432678 114.521767,516.097717 
	C113.464523,516.651550 112.824715,518.002258 112.000000,519.000000 
	C74.999969,519.000000 37.999947,519.000000 1.000000,519.000000 
	C1.000000,514.583679 1.000000,510.265961 1.365991,505.573090 
	C4.871579,509.010376 10.562400,510.287842 15.211106,508.212097 
	C19.029129,506.507233 21.336323,503.676483 20.908695,499.378632 
	C20.534998,495.622772 18.253740,493.431519 14.420171,492.826874 
	C12.840531,492.577789 11.142318,492.209534 9.825852,491.377075 
	C8.068240,490.265686 6.629820,488.649506 5.054306,487.250122 
	C6.135651,486.131409 7.076710,484.316895 8.332570,484.063660 
	C10.043625,483.718689 12.055371,484.377655 13.826796,484.950562 
	C15.765533,485.577576 17.577349,486.597015 20.457577,487.905731 
	C19.016546,481.227356 15.995210,478.394043 11.071840,479.168945 
	C7.599584,479.715485 4.349360,481.672668 1.000002,483.000000 
	C1.000000,322.424744 1.000000,161.849503 1.000000,1.000000 
	C96.354050,1.000000 191.708374,1.000000 287.354584,1.357900 
	C278.870483,4.150682 269.897675,6.045578 261.367340,9.154532 
	C250.231293,13.213165 240.145859,19.500912 231.260788,27.347851 
	C217.892197,39.154415 207.842453,53.354691 200.907944,69.928162 
	C193.609848,87.370636 191.045364,105.325554 194.170609,123.831070 
	C197.260834,142.129166 205.474915,158.565628 215.572311,173.899918 
	C229.642090,195.266800 246.980270,214.053528 264.333527,232.726715 
	C275.555847,244.802689 287.592651,256.122162 299.284027,267.761017 
	C300.169403,268.642395 301.211121,269.366821 302.290466,270.254974 
	C312.440094,259.072357 322.327271,248.195999 332.195312,237.302277 
	C344.832611,223.351440 357.630981,209.541290 370.035797,195.386459 
	C383.820099,179.657516 395.232330,162.356186 403.049927,142.830154 
	C406.577332,134.019730 408.518097,124.916916 408.999573,115.000229 
	C407.184509,115.000229 405.876251,115.045914 404.572021,114.992744 
	C396.653046,114.669876 388.735229,114.319603 380.816406,113.992683 
	C379.818390,113.951485 378.816986,113.995522 377.817139,113.996727 
	C368.066772,114.008415 368.189453,114.038063 365.963196,123.184837 
	C363.121185,134.861801 359.129089,146.026031 350.554230,154.955673 
	C340.711517,165.205643 327.912170,169.838928 314.623444,172.825470 
	C304.317810,175.141571 293.717682,174.976028 283.306244,172.128784 
	C264.945374,167.107544 250.957687,156.191025 241.601959,139.897659 
	C231.010254,121.451843 228.543259,102.064743 238.336731,82.308205 
	C249.393829,60.002533 268.930176,48.979492 291.979218,43.208324 
	C295.656769,42.287502 296.043365,40.933132 296.027649,37.994118 
	C295.961792,25.663048 295.999939,13.331422 296.000000,1.000000 
M431.078888,479.052094 
	C426.721802,479.101227 422.364746,479.150330 417.472626,479.080170 
	C417.381348,479.387604 417.290070,479.695068 417.049347,480.928864 
	C417.102112,489.950043 417.154907,498.971191 417.094025,508.522003 
	C417.396667,508.603394 417.699280,508.684784 418.920837,508.912842 
	C423.278290,508.863983 427.635742,508.815094 432.516266,508.907318 
	C432.607635,508.603973 432.699005,508.300629 432.947540,507.340759 
	C432.897552,506.896393 432.847565,506.451996 432.915527,505.474487 
	C432.609558,505.385895 432.303619,505.297302 431.085083,505.060272 
	C428.151062,505.060272 425.217072,505.060272 422.253662,505.060272 
	C422.253662,501.767609 422.253662,498.917267 422.253662,495.812683 
	C425.389191,495.812683 428.190735,495.812683 431.534027,495.932526 
	C431.630493,495.620819 431.726959,495.309113 431.952362,494.140930 
	C430.213196,493.760254 428.421600,492.904907 426.744904,493.089996 
	C422.155945,493.596497 420.242279,491.936066 420.979370,487.303955 
	C421.199585,485.920013 421.159637,484.494659 421.253418,482.829834 
	C425.101593,482.829834 428.546875,482.829834 432.538513,482.934418 
	C432.629700,482.622162 432.720917,482.309937 432.947906,481.338165 
	C432.898621,480.894653 432.849365,480.451141 432.919769,479.472626 
	C432.612366,479.381775 432.304932,479.290955 431.078888,479.052094 
M146.449371,298.000031 
	C99.102051,297.497101 51.754730,296.994202 4.381055,296.491028 
	C4.381055,348.227936 4.381055,399.062775 4.381055,449.773743 
	C17.705246,449.773743 30.647646,449.773743 44.039230,449.773743 
	C44.039230,433.157623 44.039230,416.761841 44.039230,400.005035 
	C52.111889,400.005035 59.739403,399.918304 67.361237,400.087524 
	C68.685165,400.116943 70.145081,401.016754 71.272278,401.870789 
	C90.904221,416.745148 110.507584,431.657349 130.079422,446.610718 
	C133.301010,449.072052 136.604218,450.201508 140.850998,450.124084 
	C157.503738,449.820496 174.165283,449.999939 190.823547,449.999939 
	C195.714951,449.999939 200.606339,449.999939 205.497742,449.999939 
	C205.599274,449.668182 205.700806,449.336456 205.802338,449.004700 
	C182.913422,432.952026 160.024521,416.899353 137.088852,400.813904 
	C144.580612,399.813507 151.502975,399.442169 158.152863,397.897675 
	C178.300369,393.218231 187.348587,380.590118 188.868484,362.612061 
	C189.623566,353.680450 189.324951,344.617340 188.913895,335.640717 
	C188.446854,325.441345 185.006729,316.043579 177.378357,309.090118 
	C169.034348,301.484375 158.437653,298.855682 146.449371,298.000031 
M573.500000,449.999908 
	C581.511047,449.999908 589.522156,449.999908 597.533203,449.999908 
	C597.594727,449.658081 597.656189,449.316284 597.717712,448.974457 
	C556.465820,422.267151 515.213928,395.559845 473.908661,368.817963 
	C513.927673,345.154694 553.551758,321.724945 593.175842,298.295197 
	C591.421753,297.152008 589.884399,296.996643 588.346924,296.995544 
	C566.181702,296.979767 544.015747,296.894043 521.852295,297.093628 
	C518.914795,297.120117 515.608765,298.004333 513.119385,299.539001 
	C488.863281,314.492462 464.807068,329.770325 440.534210,344.696045 
	C435.724823,347.653412 430.989288,352.075684 423.996521,349.395447 
	C423.996521,347.912292 423.996552,346.279236 423.996552,344.646179 
	C423.996490,330.313812 423.987946,315.981415 424.004669,301.649048 
	C424.007507,299.227661 424.229065,296.924225 420.604279,296.951294 
	C408.161743,297.044220 395.718109,296.987000 383.252075,296.987000 
	C383.252075,348.164856 383.252075,398.901733 383.252075,449.717529 
	C396.902466,449.717529 410.299072,449.717529 424.134216,449.717529 
	C424.134216,428.690857 424.134216,407.942444 424.134216,387.466370 
	C431.104980,385.394470 435.143860,389.755737 439.890930,392.982758 
	C466.924225,411.359772 494.081421,429.555420 521.291321,447.670288 
	C523.315125,449.017670 526.073120,449.865295 528.504333,449.898926 
	C543.167236,450.102020 557.834290,449.999908 573.500000,449.999908 
M304.999817,356.500549 
	C304.999817,350.403046 304.999817,344.305511 304.999817,337.766937 
	C329.701752,337.766937 353.769257,337.766937 377.672028,337.766937 
	C377.672028,323.898010 377.672028,310.492279 377.672028,297.343567 
	C315.940155,297.343567 254.536438,297.343567 193.382721,297.343567 
	C193.382721,311.106598 193.382721,324.508698 193.382721,338.183319 
	C217.378342,338.183319 240.992264,338.183319 265.063477,338.183319 
	C265.063477,375.530518 265.063477,412.596436 265.063477,449.708923 
	C278.590729,449.708923 291.654907,449.708923 304.999817,449.708923 
	C304.999817,418.779419 304.999817,388.139923 304.999817,356.500549 
M331.536896,49.933693 
	C354.325226,62.061089 363.965332,82.547020 367.393646,106.823814 
	C372.308289,106.823814 376.929474,106.823814 382.144714,106.823814 
	C379.918274,88.026413 373.567993,70.953918 361.808105,56.654087 
	C346.812836,38.420124 326.811646,28.563049 303.001648,26.480591 
	C303.001648,30.385071 302.766418,34.393822 303.135925,38.346039 
	C303.256683,39.637764 304.724213,41.477608 305.962585,41.881813 
	C314.233154,44.581261 322.608368,46.960091 331.536896,49.933693 
M319.265503,58.039585 
	C314.072327,56.731823 308.879181,55.424061 303.232605,54.002121 
	C303.232605,60.266434 303.232605,65.023041 303.232605,69.744469 
	C318.028412,71.869453 336.622253,81.676239 341.607178,106.690414 
	C346.381989,106.690414 351.134644,106.690414 355.877594,106.690414 
	C355.687897,88.493759 340.771851,67.632912 319.265503,58.039585 
M300.140045,95.003853 
	C296.991150,95.595917 293.635315,95.683197 290.731750,96.873657 
	C281.617615,100.610458 277.619049,110.765884 281.323059,119.821678 
	C285.057404,128.951645 295.645782,133.407150 305.276306,129.901016 
	C313.116638,127.046623 318.021362,116.412376 315.467285,107.938133 
	C313.272491,100.655846 307.792664,97.119820 300.140045,95.003853 
M256.011200,505.573029 
	C257.129700,506.699127 258.248230,507.825226 259.366730,508.951294 
	C260.541016,507.739807 262.099609,506.719543 262.815887,505.280151 
	C264.780273,501.332397 266.390686,497.208527 268.141266,493.154358 
	C268.475159,493.246796 268.809052,493.339264 269.142944,493.431702 
	C269.142944,498.492279 269.142944,503.552856 269.142944,508.707031 
	C270.910278,508.707031 272.294189,508.707031 273.780029,508.707031 
	C273.780029,498.705505 273.780029,488.950409 273.780029,479.195282 
	C273.392639,478.840607 273.005280,478.485962 272.617889,478.131287 
	C271.096588,479.468903 269.006592,480.518188 268.155975,482.195862 
	C265.056091,488.309601 262.370239,494.633240 259.260345,501.466736 
	C256.335266,494.994598 253.529892,489.038361 250.954514,482.984283 
	C249.641495,479.897675 248.027954,477.923645 244.267838,479.415649 
	C244.267838,489.127472 244.267838,498.876068 244.267838,508.704987 
	C245.885864,508.704987 247.269073,508.704987 249.066589,508.704987 
	C249.066589,503.128967 249.066589,497.786682 249.066589,492.444427 
	C249.350555,492.385345 249.634521,492.326263 249.918503,492.267212 
	C251.786453,496.495056 253.654404,500.722931 256.011200,505.573029 
M486.002472,491.329285 
	C484.451538,494.456818 482.900604,497.584351 481.052277,501.311554 
	C478.266296,495.163574 475.541840,489.321930 472.973419,483.412445 
	C471.664856,480.401581 470.189301,478.009949 466.254028,479.359955 
	C466.254028,489.182648 466.254028,498.937836 466.254028,508.687317 
	C467.904175,508.687317 469.298920,508.687317 471.116730,508.687317 
	C471.116730,503.106812 471.116730,497.771118 471.116730,492.435425 
	C474.003357,497.131622 476.128571,501.958099 478.458862,506.683441 
	C478.927582,507.633911 480.316711,508.917847 481.030579,508.776947 
	C482.122101,508.561493 483.364471,507.424866 483.897522,506.357147 
	C486.217590,501.709869 488.304230,496.946075 490.475677,492.224609 
	C490.728821,492.292328 490.981995,492.360077 491.235168,492.427826 
	C491.235168,497.860748 491.235168,503.293701 491.235168,508.961090 
	C492.992401,508.880768 494.381866,508.817230 495.721893,508.755981 
	C495.721893,498.609222 495.721893,488.865265 495.721893,479.121307 
	C495.294128,478.778137 494.866333,478.434998 494.438568,478.091827 
	C492.967072,479.479889 491.144318,480.647949 490.105347,482.306885 
	C488.492859,484.881439 487.414276,487.790344 486.002472,491.329285 
M523.311157,479.032532 
	C522.884460,479.589172 522.090393,480.142792 522.085815,480.702911 
	C522.008911,489.998230 522.031006,499.294342 522.031006,508.735413 
	C523.832642,508.735413 525.224915,508.735413 527.039917,508.735413 
	C527.039917,502.170227 527.039917,495.806122 527.039917,488.159607 
	C531.253967,494.736237 534.827698,500.152222 538.223511,505.677612 
	C540.078674,508.696259 542.384766,509.771912 545.695435,508.583618 
	C545.695435,498.675842 545.695435,489.061005 545.695435,479.244690 
	C544.105225,479.244690 542.720581,479.244690 540.922974,479.244690 
	C540.922974,486.152283 540.922974,492.847076 540.922974,500.352692 
	C536.268616,493.473938 532.205811,487.301666 527.919739,481.288544 
	C527.141785,480.196991 525.449707,479.756958 523.311157,479.032532 
M45.021656,480.057434 
	C42.145626,479.717438 39.259216,479.029968 36.395905,479.115540 
	C31.604172,479.258759 25.565136,484.190857 24.198761,488.567993 
	C22.529139,493.916565 24.835928,503.012543 28.586679,505.869904 
	C35.688438,511.280151 47.258896,509.798706 51.599758,502.586487 
	C56.068203,495.162415 54.620232,484.920990 45.021656,480.057434 
M162.960022,492.723694 
	C162.479309,490.848572 162.338165,488.792786 161.454514,487.132050 
	C158.749420,482.048096 154.659393,479.182159 148.579651,478.928711 
	C142.040192,478.656128 137.130402,481.687317 134.307877,486.779419 
	C131.406448,492.013824 132.898529,500.471924 135.882095,503.445465 
	C141.106506,508.652283 147.188309,510.648010 153.067688,508.342407 
	C159.611847,505.776154 162.739288,501.102936 162.960022,492.723694 
M392.024963,480.747192 
	C392.024963,490.033234 392.024963,499.319305 392.024963,508.695374 
	C393.823029,508.695374 395.206512,508.695374 397.214417,508.695374 
	C397.214417,504.640411 397.214417,500.830536 397.214417,497.020630 
	C397.681244,496.860779 398.148041,496.700958 398.614868,496.541107 
	C400.410828,499.316345 402.427795,501.976715 403.945251,504.896698 
	C405.731903,508.334656 407.969452,509.988403 412.380890,508.320801 
	C410.116730,504.564728 408.003754,501.059479 405.905579,497.578796 
	C406.565857,496.975067 407.245758,496.618469 407.515625,496.062775 
	C409.046234,492.911011 411.812622,489.585846 411.528137,486.567657 
	C411.295013,484.093933 407.731201,480.713318 405.033203,479.979340 
	C401.001709,478.882568 396.433990,479.756897 392.024963,480.747192 
M296.909302,502.591797 
	C296.909302,500.737793 296.909302,498.883820 296.909302,496.523224 
	C303.692352,499.291077 302.398590,510.499146 312.438202,508.600891 
	C309.928223,504.418457 307.728638,500.753204 305.414764,496.897552 
	C310.510590,494.404022 313.097687,490.718933 311.649353,485.611145 
	C310.333984,480.972443 306.445099,479.134521 301.770752,479.048431 
	C298.648499,478.990906 295.524323,479.037445 292.224792,479.037445 
	C292.224792,489.164062 292.224792,498.907227 292.224792,508.685852 
	C293.847931,508.685852 295.237457,508.685852 296.909302,508.685852 
	C296.909302,506.789215 296.909302,505.145508 296.909302,502.591797 
M438.584869,502.034515 
	C437.878021,504.258179 437.171204,506.481812 436.480499,508.654663 
	C438.488617,508.654663 440.228912,508.654663 441.621094,508.654663 
	C442.322601,506.484924 442.902283,504.692108 443.586273,502.576538 
	C448.641113,504.276855 456.201294,498.992004 457.268005,508.956055 
	C458.964081,508.877502 460.389557,508.811493 462.756500,508.701874 
	C459.043030,498.869873 455.650543,489.517731 451.929749,480.298035 
	C451.006989,478.011566 447.064758,478.410583 446.167603,480.829651 
	C443.648773,487.621552 441.362061,494.499573 438.584869,502.034515 
M322.981537,488.315063 
	C320.484283,494.993286 317.987000,501.671509 315.495819,508.333435 
	C321.954803,510.540344 321.012115,505.346985 322.488373,503.058411 
	C326.675507,503.058411 330.632233,503.058411 334.531586,503.058411 
	C335.268951,505.135986 335.951050,507.057861 336.564575,508.786499 
	C338.506683,508.786499 340.090820,508.786499 341.853241,508.786499 
	C338.508575,499.617188 335.299408,490.641388 331.903503,481.736786 
	C331.483093,480.634460 330.075226,479.199280 329.113800,479.190826 
	C327.891083,479.180084 326.195221,480.182037 325.529816,481.258301 
	C324.367462,483.138245 323.835876,485.408203 322.981537,488.315063 
M79.917465,496.270844 
	C79.917465,490.650024 79.917465,485.029205 79.917465,479.243317 
	C78.122902,479.243317 76.736626,479.243317 75.005997,479.243317 
	C75.005997,486.085510 74.955963,492.711456 75.022255,499.336304 
	C75.072838,504.392090 78.500481,508.432159 83.005760,508.950806 
	C90.690224,509.835541 96.023376,507.316437 96.858833,501.419525 
	C97.886765,494.164001 97.955521,486.772552 98.467400,479.006805 
	C96.133301,479.110077 94.629890,479.176605 92.994339,479.248993 
	C92.994339,485.369751 93.152527,491.021057 92.948021,496.659241 
	C92.758995,501.870636 89.882225,505.068512 85.938148,505.016907 
	C82.042976,504.965973 80.047707,502.376709 79.917465,496.270844 
M201.280899,479.868469 
	C198.534134,479.614990 195.674988,478.759827 193.066605,479.247070 
	C189.014175,480.004120 186.398407,483.238892 186.287643,487.193573 
	C186.191299,490.633179 187.839981,493.904205 191.864792,494.981293 
	C193.885468,495.522095 195.986984,495.989441 197.818085,496.940277 
	C199.389801,497.756500 201.781311,499.260803 201.735306,500.375153 
	C201.671982,501.909821 199.920242,504.089722 198.399612,504.644806 
	C196.929718,505.181335 194.750366,504.221100 193.037659,503.532684 
	C190.891815,502.670258 188.904053,501.414520 186.848053,500.328552 
	C188.825790,508.125244 194.061966,510.941833 200.348282,508.718262 
	C204.251282,507.337677 206.930801,504.505371 206.973099,499.911774 
	C207.013535,495.520660 204.648865,493.524567 200.531265,492.883423 
	C198.806290,492.614838 197.019135,492.037872 195.530289,491.148865 
	C193.872849,490.159149 192.522903,488.654449 191.039078,487.373962 
	C192.221619,486.172363 193.225906,484.339325 194.635315,483.941528 
	C196.135513,483.518097 198.101730,484.237183 199.713959,484.852081 
	C201.594864,485.569458 203.312790,486.714111 205.101425,487.673370 
	C205.651154,487.032745 206.200867,486.392120 206.750580,485.751465 
	C205.191650,483.859497 203.632706,481.967529 201.280899,479.868469 
M362.939850,494.596283 
	C359.608856,493.416016 356.174469,492.455505 352.992401,490.958618 
	C351.501617,490.257324 349.681030,488.608246 349.533600,487.226196 
	C349.417358,486.136810 351.452789,484.133331 352.862610,483.750061 
	C354.402588,483.331390 356.417389,484.076782 358.051086,484.742249 
	C359.839142,485.470673 361.428009,486.687988 363.756714,488.083557 
	C363.661560,482.269531 361.052643,479.464722 356.706390,479.039032 
	C350.550842,478.436127 345.752747,480.798492 345.042633,484.781738 
	C343.959595,490.856781 345.514984,493.672485 350.891876,495.275085 
	C353.053955,495.919495 355.329681,496.269714 357.394196,497.134552 
	C360.614716,498.483612 361.076935,502.665436 357.933228,503.834106 
	C355.835968,504.613800 352.922729,503.604828 350.495148,502.949799 
	C348.818878,502.497467 347.348450,501.282227 345.393524,500.188232 
	C344.395874,505.293915 346.959686,507.094879 349.917419,508.256897 
	C354.485382,510.051605 359.309082,509.560120 362.763184,506.322418 
	C365.920135,503.363342 365.922974,499.067413 362.939850,494.596283 
M166.097366,483.663116 
	C166.097366,492.053589 166.097366,500.444092 166.097366,508.734314 
	C172.064957,508.734314 177.336075,508.734314 182.796295,508.734314 
	C182.796295,507.552979 182.897171,505.768036 182.781693,505.753937 
	C178.932373,505.283600 175.062408,504.982391 171.248535,504.660858 
	C171.248535,501.716003 171.248535,498.981781 171.248535,495.886566 
	C174.596024,495.886566 177.682281,495.886566 180.763245,495.886566 
	C180.763245,494.443207 180.763245,493.374451 180.763245,491.922241 
	C177.445587,491.922241 174.367279,491.922241 171.215515,491.922241 
	C171.215515,488.798798 171.215515,486.069366 171.215515,483.014099 
	C173.899841,483.014099 176.356705,483.033295 178.813171,483.009705 
	C182.737823,482.972046 182.737701,482.960022 182.316620,479.011902 
	C178.055008,479.011902 173.746277,479.209473 169.466019,478.945465 
	C166.391663,478.755829 165.729935,480.114594 166.097366,483.663116 
M223.095886,498.472229 
	C223.095886,501.902435 223.095886,505.332642 223.095886,508.752625 
	C228.993027,508.752625 234.271484,508.752625 239.804474,508.752625 
	C239.804474,507.610168 239.912415,505.830658 239.788803,505.814423 
	C235.950378,505.310394 232.089325,504.978577 228.275696,504.624390 
	C228.275696,501.717957 228.275696,498.975037 228.275696,496.263306 
	C237.834686,495.576141 237.834686,495.576141 237.362152,491.836670 
	C234.344345,491.836670 231.260712,491.836670 228.308960,491.836670 
	C228.308960,488.669769 228.308960,485.932037 228.308960,483.012909 
	C231.085831,483.012909 233.566391,483.038574 236.046234,483.007050 
	C239.982956,482.957001 239.982758,482.940826 239.174576,479.299530 
	C233.884460,479.299530 228.627289,479.299530 223.095886,479.299530 
	C223.095886,485.547394 223.095886,491.513184 223.095886,498.472229 
M501.033020,503.377930 
	C501.033020,505.144348 501.033020,506.910767 501.033020,508.948486 
	C505.716400,508.948486 509.851898,508.805878 513.972351,508.993469 
	C517.280884,509.144073 517.347534,507.621124 516.572388,504.832062 
	C512.954834,504.832062 509.544617,504.832062 506.246429,504.832062 
	C506.246429,501.679138 506.246429,498.939087 506.246429,496.812469 
	C509.193970,494.190338 514.857910,498.977722 516.358093,491.889191 
	C512.386719,491.889191 509.297089,491.889191 506.215210,491.889191 
	C506.215210,488.757751 506.215210,486.024689 506.215210,482.924500 
	C509.885437,482.924500 513.308044,482.924500 516.730591,482.924500 
	C517.004578,482.502289 517.278564,482.080109 517.552551,481.657898 
	C516.572388,480.779022 515.636475,479.207428 514.604370,479.141479 
	C510.190125,478.859314 505.747498,479.021271 501.033020,479.021271 
	C501.033020,487.169983 501.033020,494.787903 501.033020,503.377930 
M557.016541,498.474304 
	C557.016541,501.914062 557.016541,505.353821 557.016541,509.068756 
	C558.967163,508.895172 560.351990,508.771942 562.121948,508.614410 
	C562.121948,499.890991 562.121948,491.508575 562.121948,483.166138 
	C564.642456,483.029144 566.740417,482.915131 568.838379,482.801086 
	C569.076599,482.325165 569.314758,481.849243 569.552979,481.373322 
	C568.380249,480.587036 567.242676,479.192505 566.028687,479.122406 
	C561.396057,478.854950 556.732178,479.165222 552.092896,478.963226 
	C548.768677,478.818451 548.655701,480.314178 549.420166,482.849884 
	C552.016724,482.982941 554.419312,483.106049 557.016541,483.239136 
	C557.016541,488.226440 557.016541,492.854706 557.016541,498.474304 
M61.925072,479.884186 
	C60.370991,479.584229 58.816910,479.284302 57.378189,479.006622 
	C57.378189,489.455780 57.378189,499.151154 57.378189,508.820129 
	C72.192192,509.319824 72.192192,509.319824 71.112411,504.845947 
	C68.237030,504.845947 65.300644,504.845947 61.984512,504.845947 
	C61.984512,496.672150 61.984512,488.747589 61.925072,479.884186 
M372.674530,479.023682 
	C371.217407,479.023682 369.760254,479.023682 368.249237,479.023682 
	C368.249237,480.538666 368.249237,481.607330 368.249237,483.065216 
	C370.876129,483.065216 373.285553,483.065216 376.072876,483.065216 
	C376.072876,491.853729 376.072876,500.257782 376.072876,508.532715 
	C379.462128,509.718903 380.085114,508.350189 380.033051,505.578918 
	C379.893616,498.154541 379.985535,490.725800 379.985535,482.925354 
	C382.860748,482.925354 385.277374,482.925354 387.740479,482.925354 
	C387.740479,481.468323 387.740479,480.409698 387.740479,479.023712 
	C382.894135,479.023712 378.267822,479.023712 372.674530,479.023682 
M142.031677,474.512177 
	C142.242630,475.668182 142.361679,477.797791 142.678925,477.827728 
	C145.478653,478.092041 148.413467,478.426453 151.101242,477.820923 
	C152.751343,477.449158 154.039200,475.469666 155.489731,474.212128 
	C155.199310,473.789886 154.908905,473.367676 154.618484,472.945465 
	C150.625824,473.280060 146.633148,473.614655 142.031677,474.512177 
z"/>
<path fill="#727376" opacity="1.000000" stroke="none" 
	d="
M295.555847,1.000000 
	C295.999939,13.331422 295.961792,25.663048 296.027649,37.994118 
	C296.043365,40.933132 295.656769,42.287502 291.979218,43.208324 
	C268.930176,48.979492 249.393829,60.002533 238.336731,82.308205 
	C228.543259,102.064743 231.010254,121.451843 241.601959,139.897659 
	C250.957687,156.191025 264.945374,167.107544 283.306244,172.128784 
	C293.717682,174.976028 304.317810,175.141571 314.623444,172.825470 
	C327.912170,169.838928 340.711517,165.205643 350.554230,154.955673 
	C359.129089,146.026031 363.121185,134.861801 365.963196,123.184837 
	C368.189453,114.038063 368.066772,114.008415 377.817139,113.996727 
	C378.816986,113.995522 379.818390,113.951485 380.816406,113.992683 
	C388.735229,114.319603 396.653046,114.669876 404.572021,114.992744 
	C405.876251,115.045914 407.184509,115.000229 408.999573,115.000229 
	C408.518097,124.916916 406.577332,134.019730 403.049927,142.830154 
	C395.232330,162.356186 383.820099,179.657516 370.035797,195.386459 
	C357.630981,209.541290 344.832611,223.351440 332.195312,237.302277 
	C322.327271,248.195999 312.440094,259.072357 302.290466,270.254974 
	C301.211121,269.366821 300.169403,268.642395 299.284027,267.761017 
	C287.592651,256.122162 275.555847,244.802689 264.333527,232.726715 
	C246.980270,214.053528 229.642090,195.266800 215.572311,173.899918 
	C205.474915,158.565628 197.260834,142.129166 194.170609,123.831070 
	C191.045364,105.325554 193.609848,87.370636 200.907944,69.928162 
	C207.842453,53.354691 217.892197,39.154415 231.260788,27.347851 
	C240.145859,19.500912 250.231293,13.213165 261.367340,9.154532 
	C269.897675,6.045578 278.870483,4.150682 287.823242,1.357900 
	C290.370575,1.000000 292.741119,1.000000 295.555847,1.000000 
z"/>
<path fill="#2B3D5D" opacity="1.000000" stroke="none" 
	d="
M310.555847,0.999999 
	C317.485535,2.662932 323.984039,4.277228 330.453979,5.998799 
	C344.427063,9.716886 356.896454,16.259420 368.060150,25.505533 
	C389.787689,43.500935 400.572632,67.428940 406.007874,94.353920 
	C406.808228,98.318741 407.625305,102.280174 408.589142,106.999657 
	C405.290985,106.999657 402.689331,106.999657 400.087677,106.999657 
	C397.604645,106.999657 395.121613,106.999657 393.799744,106.999657 
	C389.649353,93.726410 386.783844,80.510513 381.451965,68.378563 
	C371.263824,45.196884 353.080414,30.261353 328.779968,23.098581 
	C321.535278,20.963146 314.056122,19.605061 306.655548,18.026117 
	C304.017517,17.463278 302.754486,16.337490 302.940582,13.426109 
	C303.184570,9.609826 303.000336,5.766166 303.000122,1.467140 
	C305.370575,1.000000 307.741119,1.000000 310.555847,0.999999 
z"/>
<path fill="#0E0D0D" opacity="1.000000" stroke="none" 
	d="
M112.449982,519.000000 
	C112.824715,518.002258 113.464523,516.651550 114.521767,516.097717 
	C115.791168,515.432678 117.416206,515.446472 118.797073,514.234619 
	C117.392403,514.021667 115.987732,513.808655 114.200630,513.537659 
	C115.418785,508.634460 111.041801,508.594666 108.392456,507.067017 
	C102.574379,503.712219 99.617676,497.071899 101.090553,490.196350 
	C102.224892,484.901154 108.212891,479.638245 113.504036,479.017639 
	C121.195732,478.115479 127.753677,481.953217 129.869202,489.204834 
	C126.664108,487.707520 124.210320,486.935913 122.190918,485.537170 
	C118.378044,482.896179 111.995644,483.310608 108.649460,486.749756 
	C105.287392,490.205353 105.075546,496.894897 108.372505,500.987366 
	C111.898186,505.363708 117.016617,505.500366 122.085419,502.510223 
	C124.180214,501.274475 126.427437,500.297150 129.371735,498.816986 
	C127.942574,504.846680 125.334557,507.096100 118.364807,509.336761 
	C123.705910,511.781525 124.373016,513.902527 121.087524,518.635742 
	C118.299988,519.000000 115.599968,519.000000 112.449982,519.000000 
z"/>
<path fill="#0E0D0E" opacity="1.000000" stroke="none" 
	d="
M601.000000,499.539368 
	C597.568115,506.017883 592.925781,509.544556 585.454590,509.080292 
	C577.483643,508.584961 571.481201,502.799500 571.094666,494.279816 
	C570.773743,487.208130 577.068481,479.816956 584.077820,479.035095 
	C591.746948,478.179688 597.061218,481.069305 600.649414,487.927582 
	C601.000000,491.692902 601.000000,495.385834 601.000000,499.539368 
M592.348145,502.994324 
	C593.327515,501.738220 595.070374,500.523468 595.141113,499.218109 
	C595.342346,495.504700 595.620605,491.490967 594.440857,488.090851 
	C593.201660,484.519470 589.517639,483.297363 585.555969,483.652710 
	C581.370850,484.028046 578.299072,486.063568 577.075989,489.969849 
	C575.728760,494.272736 575.927124,498.785400 579.575928,501.985168 
	C583.096436,505.072449 587.265747,505.892029 592.348145,502.994324 
z"/>
<path fill="#0E0D0D" opacity="1.000000" stroke="none" 
	d="
M1.000002,483.449982 
	C4.349360,481.672668 7.599584,479.715485 11.071840,479.168945 
	C15.995210,478.394043 19.016546,481.227356 20.457577,487.905731 
	C17.577349,486.597015 15.765533,485.577576 13.826796,484.950562 
	C12.055371,484.377655 10.043625,483.718689 8.332570,484.063660 
	C7.076710,484.316895 6.135651,486.131409 5.054306,487.250122 
	C6.629820,488.649506 8.068240,490.265686 9.825852,491.377075 
	C11.142318,492.209534 12.840531,492.577789 14.420171,492.826874 
	C18.253740,493.431519 20.534998,495.622772 20.908695,499.378632 
	C21.336323,503.676483 19.029129,506.507233 15.211106,508.212097 
	C10.562400,510.287842 4.871579,509.010376 1.365991,505.098969 
	C1.000000,503.933319 1.000000,502.866669 1.412330,501.406128 
	C3.397087,501.716492 4.938097,502.505493 6.550138,503.102814 
	C8.423656,503.797028 10.632802,505.180511 12.192064,504.683350 
	C13.780470,504.176910 14.756076,501.748383 15.999996,500.161469 
	C14.427020,498.962067 12.985335,497.506775 11.253011,496.617981 
	C7.922331,494.909088 4.427028,493.521088 1.000000,492.000000 
	C1.000000,489.299988 1.000000,486.599976 1.000002,483.449982 
z"/>
<path fill="#FFFFFF" opacity="1.000000" stroke="none" 
	d="
M1.000000,492.449982 
	C4.427028,493.521088 7.922331,494.909088 11.253011,496.617981 
	C12.985335,497.506775 14.427020,498.962067 15.999996,500.161469 
	C14.756076,501.748383 13.780470,504.176910 12.192064,504.683350 
	C10.632802,505.180511 8.423656,503.797028 6.550138,503.102814 
	C4.938097,502.505493 3.397087,501.716492 1.412330,501.006134 
	C1.000000,498.299988 1.000000,495.599976 1.000000,492.449982 
z"/>
<path fill="#2B3D5D" opacity="1.000000" stroke="none" 
	d="
M146.916245,298.000031 
	C158.437653,298.855682 169.034348,301.484375 177.378357,309.090118 
	C185.006729,316.043579 188.446854,325.441345 188.913895,335.640717 
	C189.324951,344.617340 189.623566,353.680450 188.868484,362.612061 
	C187.348587,380.590118 178.300369,393.218231 158.152863,397.897675 
	C151.502975,399.442169 144.580612,399.813507 137.088852,400.813904 
	C160.024521,416.899353 182.913422,432.952026 205.802338,449.004700 
	C205.700806,449.336456 205.599274,449.668182 205.497742,449.999939 
	C200.606339,449.999939 195.714951,449.999939 190.823547,449.999939 
	C174.165283,449.999939 157.503738,449.820496 140.850998,450.124084 
	C136.604218,450.201508 133.301010,449.072052 130.079422,446.610718 
	C110.507584,431.657349 90.904221,416.745148 71.272278,401.870789 
	C70.145081,401.016754 68.685165,400.116943 67.361237,400.087524 
	C59.739403,399.918304 52.111889,400.005035 44.039230,400.005035 
	C44.039230,416.761841 44.039230,433.157623 44.039230,449.773743 
	C30.647646,449.773743 17.705246,449.773743 4.381055,449.773743 
	C4.381055,399.062775 4.381055,348.227936 4.381055,296.491028 
	C51.754730,296.994202 99.102051,297.497101 146.916245,298.000031 
M148.000061,350.503296 
	C148.000061,349.671417 148.000061,348.839508 148.000046,348.007629 
	C147.999969,339.049957 146.920395,338.000092 137.705597,338.000031 
	C108.257095,337.999847 78.808601,337.999969 49.360100,337.999969 
	C47.615082,337.999969 45.870064,337.999969 44.378872,337.999969 
	C44.378872,346.792908 44.378872,354.852173 44.378872,363.000031 
	C75.368385,363.000031 105.979050,363.012482 136.589691,362.992920 
	C146.540024,362.986572 148.000061,361.471497 148.000061,350.503296 
z"/>
<path fill="#2B3D5D" opacity="1.000000" stroke="none" 
	d="
M573.000000,449.999908 
	C557.834290,449.999908 543.167236,450.102020 528.504333,449.898926 
	C526.073120,449.865295 523.315125,449.017670 521.291321,447.670288 
	C494.081421,429.555420 466.924225,411.359772 439.890930,392.982758 
	C435.143860,389.755737 431.104980,385.394470 424.134216,387.466370 
	C424.134216,407.942444 424.134216,428.690857 424.134216,449.717529 
	C410.299072,449.717529 396.902466,449.717529 383.252075,449.717529 
	C383.252075,398.901733 383.252075,348.164856 383.252075,296.987000 
	C395.718109,296.987000 408.161743,297.044220 420.604279,296.951294 
	C424.229065,296.924225 424.007507,299.227661 424.004669,301.649048 
	C423.987946,315.981415 423.996490,330.313812 423.996552,344.646179 
	C423.996552,346.279236 423.996521,347.912292 423.996521,349.395447 
	C430.989288,352.075684 435.724823,347.653412 440.534210,344.696045 
	C464.807068,329.770325 488.863281,314.492462 513.119385,299.539001 
	C515.608765,298.004333 518.914795,297.120117 521.852295,297.093628 
	C544.015747,296.894043 566.181702,296.979767 588.346924,296.995544 
	C589.884399,296.996643 591.421753,297.152008 593.175842,298.295197 
	C553.551758,321.724945 513.927673,345.154694 473.908661,368.817963 
	C515.213928,395.559845 556.465820,422.267151 597.717712,448.974457 
	C597.656189,449.316284 597.594727,449.658081 597.533203,449.999908 
	C589.522156,449.999908 581.511047,449.999908 573.000000,449.999908 
z"/>
<path fill="#2B3D5D" opacity="1.000000" stroke="none" 
	d="
M304.999817,357.000488 
	C304.999817,388.139923 304.999817,418.779419 304.999817,449.708923 
	C291.654907,449.708923 278.590729,449.708923 265.063477,449.708923 
	C265.063477,412.596436 265.063477,375.530518 265.063477,338.183319 
	C240.992264,338.183319 217.378342,338.183319 193.382721,338.183319 
	C193.382721,324.508698 193.382721,311.106598 193.382721,297.343567 
	C254.536438,297.343567 315.940155,297.343567 377.672028,297.343567 
	C377.672028,310.492279 377.672028,323.898010 377.672028,337.766937 
	C353.769257,337.766937 329.701752,337.766937 304.999817,337.766937 
	C304.999817,344.305511 304.999817,350.403046 304.999817,357.000488 
z"/>
<path fill="#2B3D5D" opacity="1.000000" stroke="none" 
	d="
M331.243225,49.688358 
	C322.608368,46.960091 314.233154,44.581261 305.962585,41.881813 
	C304.724213,41.477608 303.256683,39.637764 303.135925,38.346039 
	C302.766418,34.393822 303.001648,30.385071 303.001648,26.480591 
	C326.811646,28.563049 346.812836,38.420124 361.808105,56.654087 
	C373.567993,70.953918 379.918274,88.026413 382.144714,106.823814 
	C376.929474,106.823814 372.308289,106.823814 367.393646,106.823814 
	C363.965332,82.547020 354.325226,62.061089 331.243225,49.688358 
z"/>
<path fill="#2B3D5D" opacity="1.000000" stroke="none" 
	d="
M319.603729,58.237869 
	C340.771851,67.632912 355.687897,88.493759 355.877594,106.690414 
	C351.134644,106.690414 346.381989,106.690414 341.607178,106.690414 
	C336.622253,81.676239 318.028412,71.869453 303.232605,69.744469 
	C303.232605,65.023041 303.232605,60.266434 303.232605,54.002121 
	C308.879181,55.424061 314.072327,56.731823 319.603729,58.237869 
z"/>
<path fill="#2B3D5D" opacity="1.000000" stroke="none" 
	d="
M300.566742,95.018799 
	C307.792664,97.119820 313.272491,100.655846 315.467285,107.938133 
	C318.021362,116.412376 313.116638,127.046623 305.276306,129.901016 
	C295.645782,133.407150 285.057404,128.951645 281.323059,119.821678 
	C277.619049,110.765884 281.617615,100.610458 290.731750,96.873657 
	C293.635315,95.683197 296.991150,95.595917 300.566742,95.018799 
z"/>
<path fill="#0E0D0D" opacity="1.000000" stroke="none" 
	d="
M255.766785,505.261902 
	C253.654404,500.722931 251.786453,496.495056 249.918503,492.267212 
	C249.634521,492.326263 249.350555,492.385345 249.066589,492.444427 
	C249.066589,497.786682 249.066589,503.128967 249.066589,508.704987 
	C247.269073,508.704987 245.885864,508.704987 244.267838,508.704987 
	C244.267838,498.876068 244.267838,489.127472 244.267838,479.415649 
	C248.027954,477.923645 249.641495,479.897675 250.954514,482.984283 
	C253.529892,489.038361 256.335266,494.994598 259.260345,501.466736 
	C262.370239,494.633240 265.056091,488.309601 268.155975,482.195862 
	C269.006592,480.518188 271.096588,479.468903 272.617889,478.131287 
	C273.005280,478.485962 273.392639,478.840607 273.780029,479.195282 
	C273.780029,488.950409 273.780029,498.705505 273.780029,508.707031 
	C272.294189,508.707031 270.910278,508.707031 269.142944,508.707031 
	C269.142944,503.552856 269.142944,498.492279 269.142944,493.431702 
	C268.809052,493.339264 268.475159,493.246796 268.141266,493.154358 
	C266.390686,497.208527 264.780273,501.332397 262.815887,505.280151 
	C262.099609,506.719543 260.541016,507.739807 259.366760,508.951294 
	C258.248230,507.825226 257.129700,506.699127 255.766785,505.261902 
z"/>
<path fill="#0B0A0B" opacity="1.000000" stroke="none" 
	d="
M486.055939,490.943420 
	C487.414276,487.790344 488.492859,484.881439 490.105347,482.306885 
	C491.144318,480.647949 492.967072,479.479889 494.438568,478.091827 
	C494.866333,478.434998 495.294128,478.778137 495.721893,479.121307 
	C495.721893,488.865265 495.721893,498.609222 495.721893,508.755981 
	C494.381866,508.817230 492.992401,508.880768 491.235168,508.961090 
	C491.235168,503.293701 491.235168,497.860748 491.235168,492.427826 
	C490.981995,492.360077 490.728821,492.292328 490.475677,492.224609 
	C488.304230,496.946075 486.217590,501.709869 483.897522,506.357147 
	C483.364471,507.424866 482.122101,508.561493 481.030579,508.776947 
	C480.316711,508.917847 478.927582,507.633911 478.458862,506.683441 
	C476.128571,501.958099 474.003357,497.131622 471.116730,492.435425 
	C471.116730,497.771118 471.116730,503.106812 471.116730,508.687317 
	C469.298920,508.687317 467.904175,508.687317 466.254028,508.687317 
	C466.254028,498.937836 466.254028,489.182648 466.254028,479.359955 
	C470.189301,478.009949 471.664856,480.401581 472.973419,483.412445 
	C475.541840,489.321930 478.266296,495.163574 481.052277,501.311554 
	C482.900604,497.584351 484.451538,494.456818 486.055939,490.943420 
z"/>
<path fill="#0E0D0D" opacity="1.000000" stroke="none" 
	d="
M523.745361,479.024353 
	C525.449707,479.756958 527.141785,480.196991 527.919739,481.288544 
	C532.205811,487.301666 536.268616,493.473938 540.922974,500.352692 
	C540.922974,492.847076 540.922974,486.152283 540.922974,479.244690 
	C542.720581,479.244690 544.105225,479.244690 545.695435,479.244690 
	C545.695435,489.061005 545.695435,498.675842 545.695435,508.583618 
	C542.384766,509.771912 540.078674,508.696259 538.223511,505.677612 
	C534.827698,500.152222 531.253967,494.736237 527.039917,488.159607 
	C527.039917,495.806122 527.039917,502.170227 527.039917,508.735413 
	C525.224915,508.735413 523.832642,508.735413 522.031006,508.735413 
	C522.031006,499.294342 522.008911,489.998230 522.085815,480.702911 
	C522.090393,480.142792 522.884460,479.589172 523.745361,479.024353 
z"/>
<path fill="#0F0E0E" opacity="1.000000" stroke="none" 
	d="
M45.394211,480.209961 
	C54.620232,484.920990 56.068203,495.162415 51.599758,502.586487 
	C47.258896,509.798706 35.688438,511.280151 28.586679,505.869904 
	C24.835928,503.012543 22.529139,493.916565 24.198761,488.567993 
	C25.565136,484.190857 31.604172,479.258759 36.395905,479.115540 
	C39.259216,479.029968 42.145626,479.717438 45.394211,480.209961 
M36.833790,483.915894 
	C34.707489,485.254700 31.249720,486.212646 30.734900,488.012390 
	C29.696058,491.644043 29.287331,496.051483 30.433395,499.543365 
	C31.556248,502.964569 35.309090,505.364594 39.442993,504.784515 
	C45.085674,503.992706 49.578251,498.264587 48.991177,493.262085 
	C48.232952,486.801270 44.719841,483.904175 36.833790,483.915894 
z"/>
<path fill="#0E0D0D" opacity="1.000000" stroke="none" 
	d="
M162.955200,493.149414 
	C162.739288,501.102936 159.611847,505.776154 153.067688,508.342407 
	C147.188309,510.648010 141.106506,508.652283 135.882095,503.445465 
	C132.898529,500.471924 131.406448,492.013824 134.307877,486.779419 
	C137.130402,481.687317 142.040192,478.656128 148.579651,478.928711 
	C154.659393,479.182159 158.749420,482.048096 161.454514,487.132050 
	C162.338165,488.792786 162.479309,490.848572 162.955200,493.149414 
M152.035248,503.935028 
	C153.055969,503.113342 154.244400,502.432037 155.069260,501.446472 
	C159.335358,496.349091 158.793991,489.005280 153.980194,485.409637 
	C149.931946,482.385834 141.765549,483.357727 139.720734,488.073212 
	C138.283295,491.387970 138.204346,496.133545 139.430466,499.555237 
	C141.080582,504.160065 145.793869,505.302551 152.035248,503.935028 
z"/>
<path fill="#0E0D0D" opacity="1.000000" stroke="none" 
	d="
M392.059662,480.269958 
	C396.433990,479.756897 401.001709,478.882568 405.033203,479.979340 
	C407.731201,480.713318 411.295013,484.093933 411.528137,486.567657 
	C411.812622,489.585846 409.046234,492.911011 407.515625,496.062775 
	C407.245758,496.618469 406.565857,496.975067 405.905579,497.578796 
	C408.003754,501.059479 410.116730,504.564728 412.380890,508.320801 
	C407.969452,509.988403 405.731903,508.334656 403.945251,504.896698 
	C402.427795,501.976715 400.410828,499.316345 398.614868,496.541107 
	C398.148041,496.700958 397.681244,496.860779 397.214417,497.020630 
	C397.214417,500.830536 397.214417,504.640411 397.214417,508.695374 
	C395.206512,508.695374 393.823029,508.695374 392.024963,508.695374 
	C392.024963,499.319305 392.024963,490.033234 392.059662,480.269958 
M399.243164,483.012482 
	C398.462128,483.716766 397.095642,484.355133 397.007599,485.137421 
	C396.720490,487.688110 396.900024,490.291290 396.900024,493.000946 
	C399.302643,493.000946 401.432404,493.600586 402.836487,492.847382 
	C404.546783,491.929962 406.336639,490.038452 406.761108,488.252045 
	C407.031677,487.113434 405.083466,485.174103 403.755768,484.027191 
	C402.896027,483.284546 401.360657,483.324127 399.243164,483.012482 
z"/>
<path fill="#0E0D0D" opacity="1.000000" stroke="none" 
	d="
M296.909302,503.046814 
	C296.909302,505.145508 296.909302,506.789215 296.909302,508.685852 
	C295.237457,508.685852 293.847931,508.685852 292.224792,508.685852 
	C292.224792,498.907227 292.224792,489.164062 292.224792,479.037445 
	C295.524323,479.037445 298.648499,478.990906 301.770752,479.048431 
	C306.445099,479.134521 310.333984,480.972443 311.649353,485.611145 
	C313.097687,490.718933 310.510590,494.404022 305.414764,496.897552 
	C307.728638,500.753204 309.928223,504.418457 312.438202,508.600891 
	C302.398590,510.499146 303.692352,499.291077 296.909302,496.523224 
	C296.909302,498.883820 296.909302,500.737793 296.909302,503.046814 
M305.478638,484.896423 
	C302.829529,484.106110 300.180420,483.315796 297.209808,482.429535 
	C297.209808,486.526123 297.209808,489.714142 297.209808,492.886200 
	C305.851624,493.197815 308.094696,491.248352 305.478638,484.896423 
z"/>
<path fill="#100F0F" opacity="1.000000" stroke="none" 
	d="
M438.784302,501.689056 
	C441.362061,494.499573 443.648773,487.621552 446.167603,480.829651 
	C447.064758,478.410583 451.006989,478.011566 451.929749,480.298035 
	C455.650543,489.517731 459.043030,498.869873 462.756500,508.701874 
	C460.389557,508.811493 458.964081,508.877502 457.268005,508.956055 
	C456.201294,498.992004 448.641113,504.276855 443.586273,502.576538 
	C442.902283,504.692108 442.322601,506.484924 441.621094,508.654663 
	C440.228912,508.654663 438.488617,508.654663 436.480499,508.654663 
	C437.171204,506.481812 437.878021,504.258179 438.784302,501.689056 
M449.589539,498.086151 
	C450.708038,498.002899 451.826538,497.919678 453.453552,497.798615 
	C452.118835,494.036743 450.899414,490.599884 449.461639,486.547607 
	C447.945526,490.652069 446.630798,494.211395 445.199524,498.086151 
	C446.505188,498.086151 447.621185,498.086151 449.589539,498.086151 
z"/>
<path fill="#100F0F" opacity="1.000000" stroke="none" 
	d="
M323.010742,487.914886 
	C323.835876,485.408203 324.367462,483.138245 325.529816,481.258301 
	C326.195221,480.182037 327.891083,479.180084 329.113800,479.190826 
	C330.075226,479.199280 331.483093,480.634460 331.903503,481.736786 
	C335.299408,490.641388 338.508575,499.617188 341.853241,508.786499 
	C340.090820,508.786499 338.506683,508.786499 336.564575,508.786499 
	C335.951050,507.057861 335.268951,505.135986 334.531586,503.058411 
	C330.632233,503.058411 326.675507,503.058411 322.488373,503.058411 
	C321.012115,505.346985 321.954803,510.540344 315.495819,508.333435 
	C317.987000,501.671509 320.484283,494.993286 323.010742,487.914886 
M325.840912,494.475189 
	C325.523346,495.563812 325.205750,496.652435 324.848083,497.878479 
	C327.630920,497.878479 329.722748,497.878479 332.487793,497.878479 
	C331.176331,494.061829 329.999786,490.637878 328.512421,486.309296 
	C327.425323,489.430878 326.691620,491.537659 325.840912,494.475189 
z"/>
<path fill="#0C0B0C" opacity="1.000000" stroke="none" 
	d="
M79.917801,496.737793 
	C80.047707,502.376709 82.042976,504.965973 85.938148,505.016907 
	C89.882225,505.068512 92.758995,501.870636 92.948021,496.659241 
	C93.152527,491.021057 92.994339,485.369751 92.994339,479.248993 
	C94.629890,479.176605 96.133301,479.110077 98.467400,479.006805 
	C97.955521,486.772552 97.886765,494.164001 96.858833,501.419525 
	C96.023376,507.316437 90.690224,509.835541 83.005760,508.950806 
	C78.500481,508.432159 75.072838,504.392090 75.022255,499.336304 
	C74.955963,492.711456 75.005997,486.085510 75.005997,479.243317 
	C76.736626,479.243317 78.122902,479.243317 79.917465,479.243317 
	C79.917465,485.029205 79.917465,490.650024 79.917801,496.737793 
z"/>
<path fill="#0F0E0E" opacity="1.000000" stroke="none" 
	d="
M201.677338,479.972015 
	C203.632706,481.967529 205.191650,483.859497 206.750580,485.751465 
	C206.200867,486.392120 205.651154,487.032745 205.101425,487.673370 
	C203.312790,486.714111 201.594864,485.569458 199.713959,484.852081 
	C198.101730,484.237183 196.135513,483.518097 194.635315,483.941528 
	C193.225906,484.339325 192.221619,486.172363 191.039093,487.373962 
	C192.522903,488.654449 193.872849,490.159149 195.530289,491.148865 
	C197.019135,492.037872 198.806290,492.614838 200.531265,492.883423 
	C204.648865,493.524567 207.013535,495.520660 206.973099,499.911774 
	C206.930801,504.505371 204.251282,507.337677 200.348282,508.718262 
	C194.061966,510.941833 188.825790,508.125244 186.848053,500.328552 
	C188.904053,501.414520 190.891815,502.670258 193.037659,503.532684 
	C194.750366,504.221100 196.929718,505.181335 198.399612,504.644806 
	C199.920242,504.089722 201.671982,501.909821 201.735306,500.375153 
	C201.781311,499.260803 199.389801,497.756500 197.818085,496.940277 
	C195.986984,495.989441 193.885468,495.522095 191.864792,494.981293 
	C187.839981,493.904205 186.191299,490.633179 186.287643,487.193573 
	C186.398407,483.238892 189.014175,480.004120 193.066605,479.247070 
	C195.674988,478.759827 198.534134,479.614990 201.677338,479.972015 
z"/>
<path fill="#0E0D0D" opacity="1.000000" stroke="none" 
	d="
M363.233337,494.873444 
	C365.922974,499.067413 365.920135,503.363342 362.763184,506.322418 
	C359.309082,509.560120 354.485382,510.051605 349.917419,508.256897 
	C346.959686,507.094879 344.395874,505.293915 345.393524,500.188232 
	C347.348450,501.282227 348.818878,502.497467 350.495148,502.949799 
	C352.922729,503.604828 355.835968,504.613800 357.933228,503.834106 
	C361.076935,502.665436 360.614716,498.483612 357.394196,497.134552 
	C355.329681,496.269714 353.053955,495.919495 350.891876,495.275085 
	C345.514984,493.672485 343.959595,490.856781 345.042633,484.781738 
	C345.752747,480.798492 350.550842,478.436127 356.706390,479.039032 
	C361.052643,479.464722 363.661560,482.269531 363.756714,488.083557 
	C361.428009,486.687988 359.839142,485.470673 358.051086,484.742249 
	C356.417389,484.076782 354.402588,483.331390 352.862610,483.750061 
	C351.452789,484.133331 349.417358,486.136810 349.533600,487.226196 
	C349.681030,488.608246 351.501617,490.257324 352.992401,490.958618 
	C356.174469,492.455505 359.608856,493.416016 363.233337,494.873444 
z"/>
<path fill="#0F0E0E" opacity="1.000000" stroke="none" 
	d="
M166.097412,483.182678 
	C165.729935,480.114594 166.391663,478.755829 169.466019,478.945465 
	C173.746277,479.209473 178.055008,479.011902 182.316620,479.011902 
	C182.737701,482.960022 182.737823,482.972046 178.813171,483.009705 
	C176.356705,483.033295 173.899841,483.014099 171.215515,483.014099 
	C171.215515,486.069366 171.215515,488.798798 171.215515,491.922241 
	C174.367279,491.922241 177.445587,491.922241 180.763245,491.922241 
	C180.763245,493.374451 180.763245,494.443207 180.763245,495.886566 
	C177.682281,495.886566 174.596024,495.886566 171.248535,495.886566 
	C171.248535,498.981781 171.248535,501.716003 171.248535,504.660858 
	C175.062408,504.982391 178.932373,505.283600 182.781693,505.753937 
	C182.897171,505.768036 182.796295,507.552979 182.796295,508.734314 
	C177.336075,508.734314 172.064957,508.734314 166.097366,508.734314 
	C166.097366,500.444092 166.097366,492.053589 166.097412,483.182678 
z"/>
<path fill="#0E0D0D" opacity="1.000000" stroke="none" 
	d="
M223.095886,497.975616 
	C223.095886,491.513184 223.095886,485.547394 223.095886,479.299530 
	C228.627289,479.299530 233.884460,479.299530 239.174576,479.299530 
	C239.982758,482.940826 239.982956,482.957001 236.046234,483.007050 
	C233.566391,483.038574 231.085831,483.012909 228.308960,483.012909 
	C228.308960,485.932037 228.308960,488.669769 228.308960,491.836670 
	C231.260712,491.836670 234.344345,491.836670 237.362152,491.836670 
	C237.834686,495.576141 237.834686,495.576141 228.275696,496.263306 
	C228.275696,498.975037 228.275696,501.717957 228.275696,504.624390 
	C232.089325,504.978577 235.950378,505.310394 239.788803,505.814423 
	C239.912415,505.830658 239.804474,507.610168 239.804474,508.752625 
	C234.271484,508.752625 228.993027,508.752625 223.095886,508.752625 
	C223.095886,505.332642 223.095886,501.902435 223.095886,497.975616 
z"/>
<path fill="#0B0A0A" opacity="1.000000" stroke="none" 
	d="
M501.033020,502.891876 
	C501.033020,494.787903 501.033020,487.169983 501.033020,479.021271 
	C505.747498,479.021271 510.190125,478.859314 514.604370,479.141479 
	C515.636475,479.207428 516.572388,480.779022 517.552551,481.657898 
	C517.278564,482.080109 517.004578,482.502289 516.730591,482.924500 
	C513.308044,482.924500 509.885437,482.924500 506.215210,482.924500 
	C506.215210,486.024689 506.215210,488.757751 506.215210,491.889191 
	C509.297089,491.889191 512.386719,491.889191 516.358093,491.889191 
	C514.857910,498.977722 509.193970,494.190338 506.246429,496.812469 
	C506.246429,498.939087 506.246429,501.679138 506.246429,504.832062 
	C509.544617,504.832062 512.954834,504.832062 516.572388,504.832062 
	C517.347534,507.621124 517.280884,509.144073 513.972351,508.993469 
	C509.851898,508.805878 505.716400,508.948486 501.033020,508.948486 
	C501.033020,506.910767 501.033020,505.144348 501.033020,502.891876 
z"/>
<path fill="#010101" opacity="1.000000" stroke="none" 
	d="
M430.992279,495.812683 
	C428.190735,495.812683 425.389191,495.812683 422.253662,495.812683 
	C422.253662,498.917267 422.253662,501.767609 422.253662,505.060272 
	C425.217072,505.060272 428.151062,505.060272 431.620850,505.315002 
	C432.317383,505.793121 432.531036,505.939087 432.797607,506.007629 
	C432.847565,506.451996 432.897552,506.896393 432.684937,507.736450 
	C432.186676,508.280823 432.043640,508.492157 431.993195,508.766235 
	C427.635742,508.815094 423.278290,508.863983 418.389893,508.657043 
	C417.695465,508.179626 417.478363,508.043335 417.207672,507.992371 
	C417.154907,498.971191 417.102112,489.950043 417.303955,480.382996 
	C417.782837,479.677124 417.932526,479.464569 418.007660,479.199463 
	C422.364746,479.150330 426.721802,479.101227 431.620667,479.305939 
	C432.322571,479.783661 432.535126,479.932953 432.800110,480.007629 
	C432.849365,480.451141 432.898621,480.894653 432.702087,481.761108 
	C432.240112,482.355133 432.085419,482.570404 431.992157,482.829834 
	C428.546875,482.829834 425.101593,482.829834 421.253418,482.829834 
	C421.159637,484.494659 421.199585,485.920013 420.979370,487.303955 
	C420.242279,491.936066 422.155945,493.596497 426.744904,493.089996 
	C428.421600,492.904907 430.213196,493.760254 431.709229,494.659912 
	C431.240814,495.339813 431.082886,495.551086 430.992279,495.812683 
z"/>
<path fill="#0E0D0D" opacity="1.000000" stroke="none" 
	d="
M557.016541,497.978638 
	C557.016541,492.854706 557.016541,488.226440 557.016541,483.239136 
	C554.419312,483.106049 552.016724,482.982941 549.420166,482.849884 
	C548.655701,480.314178 548.768677,478.818451 552.092896,478.963226 
	C556.732178,479.165222 561.396057,478.854950 566.028687,479.122406 
	C567.242676,479.192505 568.380249,480.587036 569.552979,481.373322 
	C569.314758,481.849243 569.076599,482.325165 568.838379,482.801086 
	C566.740417,482.915131 564.642456,483.029144 562.121948,483.166138 
	C562.121948,491.508575 562.121948,499.890991 562.121948,508.614410 
	C560.351990,508.771942 558.967163,508.895172 557.016541,509.068756 
	C557.016541,505.353821 557.016541,501.914062 557.016541,497.978638 
z"/>
<path fill="#090808" opacity="1.000000" stroke="none" 
	d="
M61.954792,480.353577 
	C61.984512,488.747589 61.984512,496.672150 61.984512,504.845947 
	C65.300644,504.845947 68.237030,504.845947 71.112411,504.845947 
	C72.192192,509.319824 72.192192,509.319824 57.378189,508.820129 
	C57.378189,499.151154 57.378189,489.455780 57.378189,479.006622 
	C58.816910,479.284302 60.370991,479.584229 61.954792,480.353577 
z"/>
<path fill="#090808" opacity="1.000000" stroke="none" 
	d="
M373.158020,479.023682 
	C378.267822,479.023712 382.894135,479.023712 387.740479,479.023712 
	C387.740479,480.409698 387.740479,481.468323 387.740479,482.925354 
	C385.277374,482.925354 382.860748,482.925354 379.985535,482.925354 
	C379.985535,490.725800 379.893616,498.154541 380.033051,505.578918 
	C380.085114,508.350189 379.462128,509.718903 376.072876,508.532715 
	C376.072876,500.257782 376.072876,491.853729 376.072876,483.065216 
	C373.285553,483.065216 370.876129,483.065216 368.249237,483.065216 
	C368.249237,481.607330 368.249237,480.538666 368.249237,479.023682 
	C369.760254,479.023682 371.217407,479.023682 373.158020,479.023682 
z"/>
<path fill="#121111" opacity="1.000000" stroke="none" 
	d="
M142.336090,474.230713 
	C146.633148,473.614655 150.625824,473.280060 154.618484,472.945465 
	C154.908905,473.367676 155.199310,473.789886 155.489731,474.212128 
	C154.039200,475.469666 152.751343,477.449158 151.101242,477.820923 
	C148.413467,478.426453 145.478653,478.092041 142.678925,477.827728 
	C142.361679,477.797791 142.242630,475.668182 142.336090,474.230713 
z"/>
<path fill="#181717" opacity="1.000000" stroke="none" 
	d="
M417.150848,508.257202 
	C417.478363,508.043335 417.695465,508.179626 417.930420,508.583740 
	C417.699280,508.684784 417.396667,508.603394 417.150848,508.257202 
z"/>
<path fill="#181717" opacity="1.000000" stroke="none" 
	d="
M432.856567,505.741058 
	C432.531036,505.939087 432.317383,505.793121 432.077148,505.389221 
	C432.303619,505.297302 432.609558,505.385895 432.856567,505.741058 
z"/>
<path fill="#181717" opacity="1.000000" stroke="none" 
	d="
M432.254730,508.836761 
	C432.043640,508.492157 432.186676,508.280823 432.606354,508.064697 
	C432.699005,508.300629 432.607635,508.603973 432.254730,508.836761 
z"/>
<path fill="#181717" opacity="1.000000" stroke="none" 
	d="
M431.263153,495.872620 
	C431.082886,495.551086 431.240814,495.339813 431.644775,495.088135 
	C431.726959,495.309113 431.630493,495.620819 431.263153,495.872620 
z"/>
<path fill="#181717" opacity="1.000000" stroke="none" 
	d="
M432.265320,482.882141 
	C432.085419,482.570404 432.240112,482.355133 432.634186,482.090881 
	C432.720917,482.309937 432.629700,482.622162 432.265320,482.882141 
z"/>
<path fill="#181717" opacity="1.000000" stroke="none" 
	d="
M432.859924,479.740112 
	C432.535126,479.932953 432.322571,479.783661 432.079956,479.379944 
	C432.304932,479.290955 432.612366,479.381775 432.859924,479.740112 
z"/>
<path fill="#181717" opacity="1.000000" stroke="none" 
	d="
M417.740143,479.139832 
	C417.932526,479.464569 417.782837,479.677124 417.378662,479.919830 
	C417.290070,479.695068 417.381348,479.387604 417.740143,479.139832 
z"/>
<path fill="#FEFEFE" opacity="1.000000" stroke="none" 
	d="
M591.954651,503.065704 
	C587.265747,505.892029 583.096436,505.072449 579.575928,501.985168 
	C575.927124,498.785400 575.728760,494.272736 577.075989,489.969849 
	C578.299072,486.063568 581.370850,484.028046 585.555969,483.652710 
	C589.517639,483.297363 593.201660,484.519470 594.440857,488.090851 
	C595.620605,491.490967 595.342346,495.504700 595.141113,499.218109 
	C595.070374,500.523468 593.327515,501.738220 591.954651,503.065704 
z"/>
<path fill="#FFFFFF" opacity="1.000000" stroke="none" 
	d="
M148.000061,350.980896 
	C148.000061,361.471497 146.540024,362.986572 136.589691,362.992920 
	C105.979050,363.012482 75.368385,363.000031 44.378872,363.000031 
	C44.378872,354.852173 44.378872,346.792908 44.378872,337.999969 
	C45.870064,337.999969 47.615082,337.999969 49.360100,337.999969 
	C78.808601,337.999969 108.257095,337.999847 137.705597,338.000031 
	C146.920395,338.000092 147.999969,339.049957 148.000046,348.007629 
	C148.000061,348.839508 148.000061,349.671417 148.000061,350.980896 
z"/>
<path fill="#FFFFFF" opacity="1.000000" stroke="none" 
	d="
M37.260849,483.928345 
	C44.719841,483.904175 48.232952,486.801270 48.991177,493.262085 
	C49.578251,498.264587 45.085674,503.992706 39.442993,504.784515 
	C35.309090,505.364594 31.556248,502.964569 30.433395,499.543365 
	C29.287331,496.051483 29.696058,491.644043 30.734900,488.012390 
	C31.249720,486.212646 34.707489,485.254700 37.260849,483.928345 
z"/>
<path fill="#FFFFFF" opacity="1.000000" stroke="none" 
	d="
M151.640106,503.985382 
	C145.793869,505.302551 141.080582,504.160065 139.430466,499.555237 
	C138.204346,496.133545 138.283295,491.387970 139.720734,488.073212 
	C141.765549,483.357727 149.931946,482.385834 153.980194,485.409637 
	C158.793991,489.005280 159.335358,496.349091 155.069260,501.446472 
	C154.244400,502.432037 153.055969,503.113342 151.640106,503.985382 
z"/>
<path fill="#FFFFFF" opacity="1.000000" stroke="none" 
	d="
M399.685608,483.012848 
	C401.360657,483.324127 402.896027,483.284546 403.755768,484.027191 
	C405.083466,485.174103 407.031677,487.113434 406.761108,488.252045 
	C406.336639,490.038452 404.546783,491.929962 402.836487,492.847382 
	C401.432404,493.600586 399.302643,493.000946 396.900024,493.000946 
	C396.900024,490.291290 396.720490,487.688110 397.007599,485.137421 
	C397.095642,484.355133 398.462128,483.716766 399.685608,483.012848 
z"/>
<path fill="#FEFEFE" opacity="1.000000" stroke="none" 
	d="
M305.764893,485.186707 
	C308.094696,491.248352 305.851624,493.197815 297.209808,492.886200 
	C297.209808,489.714142 297.209808,486.526123 297.209808,482.429535 
	C300.180420,483.315796 302.829529,484.106110 305.764893,485.186707 
z"/>
<path fill="#FFFFFF" opacity="1.000000" stroke="none" 
	d="
M449.163361,498.086151 
	C447.621185,498.086151 446.505188,498.086151 445.199524,498.086151 
	C446.630798,494.211395 447.945526,490.652069 449.461639,486.547607 
	C450.899414,490.599884 452.118835,494.036743 453.453552,497.798615 
	C451.826538,497.919678 450.708038,498.002899 449.163361,498.086151 
z"/>
<path fill="#FEFEFE" opacity="1.000000" stroke="none" 
	d="
M325.899414,494.059814 
	C326.691620,491.537659 327.425323,489.430878 328.512421,486.309296 
	C329.999786,490.637878 331.176331,494.061829 332.487793,497.878479 
	C329.722748,497.878479 327.630920,497.878479 324.848083,497.878479 
	C325.205750,496.652435 325.523346,495.563812 325.899414,494.059814 
z"/>
</svg>