<svg xmlns="http://www.w3.org/2000/svg" xmlns:xlink="http://www.w3.org/1999/xlink" version="1.0"
  x="0px" y="0px" viewBox="0 0 100 125" enable-background="new 0 0 100 100" xml:space="preserve"><path d="M48.3991241,3.1817861c-0.0230598,0.0008755-0.0462074,0.0012052-0.0692558,0.0021343  c-0.0300751,0.0012188-0.06007,0.00406-0.0901375,0.0054941c-0.0699692,0.0037231-0.1403275,0.0056353-0.2101135,0.0100522  c-0.0626678,0.0039723-0.1251945,0.0093586-0.1877708,0.0141928c-0.0251884,0.0019524-0.050396,0.0036356-0.0755692,0.0057094  c-0.1531944,0.0126107-0.3062057,0.0276921-0.459034,0.0445917c-0.0448189,0.0050025-0.0895844,0.0104089-0.1343651,0.0157347  c-0.105217,0.0123951-0.210289,0.0258272-0.3152924,0.0398045c-0.1111336,0.0148797-0.222187,0.0304191-0.3331413,0.0466788  c-0.064476,0.0094531-0.1289635,0.0187914-0.1933556,0.0286484c-0.0414124,0.0063424-0.0829964,0.0119441-0.1243744,0.0184278  c-0.0282936,0.004437-0.0564613,0.0095673-0.0847473,0.0140378c-0.2422409,0.0381484-0.4842186,0.0778856-0.7260246,0.1176701  c-0.8519325,0.1402047-1.7019882,0.3016989-2.5491753,0.4679396c-0.0638466,0.0125299-0.1275253,0.0260963-0.1913414,0.0388618  c-0.1199112,0.0239959-0.2398109,0.0480862-0.3595543,0.0730314c-0.1115761,0.0232887-0.2229042,0.0477157-0.3342781,0.0719404  c-0.0596809,0.0129809-0.1195068,0.0252686-0.1791191,0.0385523c-0.0246315,0.0054874-0.0491371,0.0115333-0.073761,0.0170679  c-0.1057243,0.0237803-0.2112541,0.0484695-0.3167381,0.073287c-0.0993652,0.0234303-0.1985855,0.0474329-0.2976952,0.0719132  c-0.0956268,0.023592-0.1911659,0.0475001-0.2865028,0.0722098c-0.0944672,0.0244536-0.1885719,0.0502605-0.2827377,0.075839  c-0.0799789,0.0217266-0.1603966,0.0418243-0.2401352,0.0644131c-0.0286751,0.0081196-0.0568695,0.0177879-0.0854912,0.0260696  c-0.0798988,0.0231271-0.1591263,0.048389-0.2386322,0.0727615c-0.1031227,0.0314627-0.2064781,0.0621376-0.3090324,0.0955257  c-0.0051041,0.0016632-0.010273,0.0030837-0.015377,0.0047536c-0.1820374,0.0594711-0.3626671,0.1230831-0.542244,0.1895633  c-0.0238266,0.0088267-0.0472908,0.0186095-0.0710869,0.0275507c-0.1561584,0.058589-0.3114548,0.1194744-0.4657784,0.182797  c-0.0757217,0.0311594-0.150753,0.0639482-0.2260284,0.0961919c-0.1052208,0.0450025-0.2103004,0.0903349-0.3145905,0.137485  c-0.0315819,0.0142803-0.0637665,0.0271535-0.0952644,0.0416288c-0.0482674,0.0221848-0.0957603,0.0461607-0.1438789,0.0687022  c-0.0510483,0.0238881-0.1027031,0.0465102-0.1535301,0.0708361c-0.0511169,0.0244603-0.101532,0.0504222-0.1524658,0.0752802  c-0.089592,0.0437231-0.1791534,0.0875268-0.2681961,0.1324215c-0.0705261,0.0354419-0.1405869,0.0718193-0.2107849,0.1079545  c-0.4026451,0.2072906-0.7997589,0.4252667-1.1909981,0.6526012c-0.0441704,0.0255175-0.088768,0.0503483-0.1328125,0.0760541  c-0.0103149,0.0060196-0.0205345,0.0122809-0.0308495,0.0183134c-0.0128746,0.0075879-0.0259972,0.014792-0.0388565,0.0224004  c-0.1322136,0.078249-0.2648697,0.1571379-0.3974686,0.2365718c-0.005249,0.0031443-0.0105019,0.0063019-0.0157547,0.0094533  c-0.6064186,0.3636274-1.2098236,0.7453527-1.7501945,1.1972818c-0.1732559,0.1448908-0.3307304,0.3014631-0.4770508,0.4663305  c-0.1911507,0.2098694-0.3653221,0.4357767-0.5171967,0.6834373c-0.1435966,0.2341413-0.2705269,0.477951-0.387516,0.726737  c-0.0040321,0.0085907-0.0083427,0.0169735-0.0123482,0.0255842c-0.0055466,0.0119104-0.0106583,0.0240297-0.0161591,0.0359602  c-0.0719604,0.1560411-0.1411266,0.313448-0.2054729,0.4728889c-0.2272186,0.5531168-0.416338,1.1233482-0.5762291,1.6989594  c-0.0106525,0.0383167-0.0208721,0.0767145-0.0312614,0.1150713c-0.0131969,0.0487118-0.0268917,0.0973368-0.03969,0.1461029  c-0.0660763,0.2516737-0.1227875,0.5051451-0.1727104,0.7597942c-0.0059185,0.0298805-0.0133171,0.0594578-0.0190201,0.0893793  c-0.0040874,0.02145-0.0068474,0.0430765-0.0108128,0.0645475c-0.0243797,0.131937-0.0463696,0.2641964-0.0664749,0.3966856  c-0.0089073,0.0584011-0.0171146,0.1169024-0.0252686,0.1754179c-0.0198746,0.1439009-0.0387669,0.2879305-0.0541649,0.4323559  c-0.0015011,0.0138226-0.0026321,0.0276794-0.0040932,0.0415087c-0.0206299,0.195219-0.037899,0.3909025-0.0510826,0.5870571  c-0.0498562,0.7427206-0.0541592,1.4896412-0.0466595,2.2336884c0.0054073,0.5362244,0.0134602,1.0723343,0.0201855,1.608551  c0.0079861,0.6347942,0.0159245,1.2695789,0.0238819,1.9043732c0.0009689,0.084692,0.0019455,0.169405,0.0029144,0.2540913  c0.0123558,1.0765209,0.0247097,2.1530495,0.0370655,3.2295704c0.0126839,1.1142521,0.0254841,2.2285042,0.0382767,3.3426437  c0.0112495,0.9817696,0.0225067,1.9635334,0.0337582,2.945303c0.0077229,0.6808395,0.0155525,1.3615704,0.0233822,2.0424099  c0.0009975,0.0887032,0.0023232,0.1774101,0.0035629,0.2661133c-0.0014286,0.2204742-0.0031452,0.4409561-0.0039864,0.6613693  c-0.0023155,0.608036-0.0045242,1.2160683-0.0068417,1.8241043c-0.0003281,0.0953102-0.0006657,0.190506-0.0011024,0.2858162  c-0.0000076,0.0034447,0.0004711,0.0080376,0.0006313,0.0118484c-0.0002823,0.046196-0.0005779,0.0923805-0.0008602,0.1385765  c-0.0001831,0.0005226-0.0001354,0.0012856-0.0003242,0.0018044c-0.0164337,0.0444565-0.0921116,0.0675087-0.1367836,0.0933228  c-0.0975189,0.0561447-0.193819,0.1143913-0.289238,0.1741791c-0.0425167,0.0266342-0.0837822,0.055397-0.1258163,0.0828819  c-0.0642643,0.0409431-0.1280575,0.0828667-0.1913071,0.1260262c-0.0253277,0.0173759-0.0503483,0.0351906-0.0754681,0.0528717  c-0.0390778,0.0274239-0.0782623,0.0545845-0.1169434,0.0829697c-0.0099163,0.0072784-0.0198402,0.015007-0.0297661,0.0223465  c-0.3251629,0.2405014-0.6520882,0.5163879-0.8973522,0.8453903c-0.0133915,0.0179558-0.0268116,0.0358925-0.03969,0.0541763  c-0.0149403,0.0209122-0.0296059,0.0420227-0.0438175,0.0634117c-0.0300827,0.0452919-0.0583954,0.0916824-0.0849152,0.1390991  c-0.001461,0.0026283-0.003252,0.0050659-0.0046997,0.0076981c-0.0047474,0.0086441-0.0083485,0.0182571-0.0129337,0.0270462  c-0.017498,0.0328751-0.0352459,0.0656166-0.0505981,0.099678c-0.0055733,0.0123749-0.0098839,0.0253143-0.0151691,0.0378189  c-0.0052376,0.0123863-0.0100574,0.0249443-0.0150204,0.0374527c-0.0161648,0.0404778-0.0305729,0.0821037-0.0443153,0.1241226  c-0.0079918,0.0251732-0.0166168,0.0501099-0.023632,0.075634c-0.001791,0.0062294-0.0030899,0.0126724-0.0048275,0.0189285  c-0.0886593,0.3189354-0.1116314,0.6686401-0.0683727,0.9885292c0.0104237,0.1390991,0.037859,0.3243027,0.1352158,0.4013062  c0.0103893,0.0086975,0.0215244,0.016468,0.0340881,0.0223122c0.0004387,0.0001945,0.0008144,0.0004959,0.0012531,0.0006866  c0.0120926,0.0053062,0.0248508,0.009491,0.0387268,0.0117493c0.0005989,0.0000916,0.0012264,0.0000381,0.0018253,0.0001335  c0.0002556,0.000042,0.0004444,0.0001678,0.0007,0.0002098c0.0016289,0.0002403,0.0033722,0.0000114,0.0050087,0.0002213  c0.0120125,0.0015564,0.0243607,0.0016556,0.0367279,0.0016479c0.1401043-0.0000458,0.3005142-0.0927505,0.4188099-0.1420746  c0.5218697-0.2173576,1.0437202-0.4333191,1.5675144-0.6453972c-0.0056152,0.662693-0.0112362,1.3254013-0.0167446,1.9880943  c-0.0099316,1.1747017-0.0198555,2.3493996-0.0297852,3.5239906c-0.004303,0.506218-0.0140114,1.012764-0.0121326,1.5190926  c0.0002823,0.0766068,0.0005646,0.1532135,0.0008469,0.2298203c0.0005131,0.2887764,0.0020676,0.5775833,0.0028954,0.8663406  c0.0024319,0.8232536,0.0047474,1.646389,0.0071716,2.4696426c0.0023155,0.8128853,0.0047455,1.6257668,0.0070629,2.4386444  c0.0009899,0.3441696-0.00033,0.6885605,0.0029755,1.0327301c0.0012188,0.1232605,0.00383,0.2464752,0.0059376,0.3697281  c0.0006676,0.1050262,0.0006199,0.2100639,0.0016766,0.3150826c0.0049686,0.4918747,0.0159969,0.9838638,0.0240498,1.4757385  c0.0181999,1.1154671,0.0362911,2.2309303,0.0544891,3.3463936c0.0186443,1.1455803,0.0372868,2.2911568,0.0559292,3.4367371  c0.0093727,0.5744705,0.0204964,1.1490517,0.0279961,1.7236404c0.0052643,0.7189178,0.0106449,1.4377365,0.0159092,2.156662  c0.0037498,0.5172424,0.0027618,1.03405-0.0007744,1.5514069c-0.003212,0.4665298-0.0101585,0.932724-0.0182991,1.3989792  c-0.0106239,0.516571-0.0222721,1.0329971-0.0419331,1.5494156c-0.0428009,1.124733-0.0854931,2.2494659-0.128294,3.3741913  c-0.0236053,0.6221542-0.0472107,1.244194-0.0669575,1.8664703c-0.0143757,0.453186-0.0284405,0.9062653-0.0410576,1.3593826  c-0.0000668,0.0017929-0.0001278,0.0035858-0.0001945,0.0053787c-0.0140114,0.3887329-0.0205154,0.7772446-0.0277996,1.1661987  c-0.0001087,0.005722-0.0001278,0.0114441-0.0002365,0.0171661c-0.0009556,0.0478668-0.002512,0.0956955-0.0034065,0.1435699  c-0.0145569,0.780777-0.0217266,1.5621033-0.0166569,2.3430023c0.0018921,0.2936172,0.0059452,0.5871277,0.0111904,0.8806  c0.0010757,0.0705261,0.0016613,0.1410522,0.002821,0.2115784c0.0007324,0.0445862,0.0028,0.0891724,0.0036888,0.1337585  c0.001421,0.0711899,0.0040798,0.1423645,0.0058975,0.213562c0.0061741,0.2310333,0.0139503,0.4620438,0.0230675,0.6930161  c0.0050087,0.1268692,0.0095539,0.2537384,0.0155525,0.3805847c0.0042076,0.0890121,0.0110092,0.177887,0.0162125,0.266861  c0.0004845,0.008255,0.0007267,0.0165329,0.0012188,0.0247955c0.0007477,0.0125809,0.0018253,0.0251617,0.0025864,0.0377426  c0.0091553,0.1498489,0.0188789,0.2996216,0.0307484,0.449295c0.013155,0.1704178,0.0278206,0.3407516,0.0442677,0.5109024  c0.0139503,0.1408157,0.0286293,0.2815552,0.0450497,0.4220886c0.0047741,0.0408554,0.0097637,0.0816803,0.0147858,0.1224899  c0.0067863,0.0551682,0.0127048,0.1104507,0.0199757,0.165535c0.0059662,0.0451584,0.013319,0.0899734,0.0196667,0.135025  c0.0097828,0.0723724,0.0181866,0.1449432,0.0286484,0.2172012c0.0023232,0.0160675,0.0051517,0.0320435,0.0075417,0.0480957  h-0.0002556c0.0001602,0.0004959,0.00033,0.0010071,0.0004902,0.001503  c0.0617542,0.4143448,0.1444073,0.8247223,0.2294693,1.2346725c0.0055351,0.0272064,0.0107803,0.05439,0.0163612,0.0815964  c0.0731049,0.356514,0.1449585,0.7129288,0.2102337,1.0706253c0.0148392,0.0882645,0.0292263,0.1765594,0.0422955,0.2649841  c0.0287361,0.252121,0.0691319,0.5026779,0.1203499,0.7510834c0.0138683,0.0946808,0.027853,0.1893692,0.0413799,0.2840958  c0.0765057,0.5791931,0.1410923,1.1609726,0.2242432,1.7391891c0.0139923,0.1091003,0.0302105,0.2178268,0.047924,0.3262329  c0.000843,0.0053024,0.0014896,0.010643,0.0023441,0.0159378c0.0010357,0.006424,0.0025578,0.0126953,0.0036221,0.0191116  c0.0346603,0.2055511,0.0775356,0.4093552,0.1389103,0.6085587c0.079071,0.2565536,0.1843529,0.5055618,0.3059082,0.7464905  c0.0073395,0.0147171,0.0148849,0.0293198,0.0223656,0.0439835c0.0298424,0.0578003,0.0597878,0.1153946,0.0916748,0.1720581  c0.0434608,0.0780106,0.0885162,0.155304,0.1358986,0.2314835c0.0042114,0.0067749,0.0080032,0.0137482,0.0122452,0.0205078  c0.0016632,0.002655,0.0035133,0.0051422,0.0051842,0.0077896c0.0388832,0.0612411,0.078598,0.1218643,0.1195908,0.1813965  c0.0051575,0.0074997,0.010704,0.0146561,0.0158997,0.02211c0.0035515,0.0050888,0.0072784,0.0100098,0.010849,0.0150757  c0.2852516,0.4056778,0.6299591,0.7609406,1.0352135,1.0482712c0.0133476,0.0094681,0.0272217,0.0181351,0.0406685,0.0274582  c0.0030136,0.0020905,0.0061111,0.0040817,0.0091362,0.0061646c0.0604591,0.0421906,0.1225243,0.0825958,0.1855011,0.1219788  c0.0083427,0.0052109,0.0161858,0.010994,0.0245781,0.0161591c0.011364,0.0069962,0.0231667,0.0131836,0.0345802,0.0201035  c0.060009,0.0363693,0.1206169,0.0716705,0.1818733,0.1057587c0.0157814,0.0087738,0.031414,0.0177917,0.0472832,0.0264206  c0.0768433,0.0418472,0.1544266,0.0823212,0.2329521,0.1209183c0.0010414,0.0005112,0.0020447,0.0010681,0.0030823,0.0015793  c0.0735703,0.0361099,0.1481209,0.0702591,0.2229729,0.1037521c0.0405388,0.0180664,0.0813599,0.0354767,0.1222076,0.0528259  c0.0325928,0.0138855,0.0652466,0.027626,0.0980377,0.0410843c0.0496788,0.0203323,0.0994644,0.0404205,0.1494675,0.0597916  c0.0190659,0.0073929,0.0382347,0.0145035,0.0573502,0.021759c0.0546455,0.020752,0.109333,0.0413742,0.1642265,0.0610962  c0.0187187,0.0067291,0.0377731,0.0124435,0.0565376,0.0190353c0.1069489,0.0377045,0.2143135,0.0742035,0.3223343,0.1084976  c0.0200577,0.0063705,0.040081,0.0128403,0.0601578,0.0191116c0.1161804,0.0362396,0.2325935,0.071434,0.3492393,0.1046448  c0.0031853,0.0009079,0.0063896,0.0017166,0.0095749,0.0026169c0.1469116,0.0417709,0.2944336,0.0815277,0.4420967,0.1207962  c0.5793419,0.1540451,1.1637726,0.2903671,1.7502441,0.4132462c0.0780563,0.0163498,0.1565666,0.0306931,0.2347565,0.0464859  c0.0660095,0.0135498,0.1319275,0.0274811,0.1980057,0.0407715c0.1231232,0.024765,0.2464638,0.0483932,0.3698692,0.0716705  c0.0384789,0.0072708,0.0769577,0.0144882,0.1154594,0.021637c0.3072548,0.0570297,0.6151619,0.1103516,0.9237823,0.1591034  c0.0000343,0.000145,0.000061,0.0002823,0.0000954,0.0004272l-0.0000153-0.000412  c0.0620155,0.0097961,0.1240921,0.019043,0.1861572,0.0284729c0.0456352,0.0070648,0.0912094,0.0145264,0.1368637,0.0214615  c0.0116806,0.00177,0.0234299,0.0030746,0.0351143,0.004837c0.0274734,0.0040207,0.0548706,0.0086517,0.0823555,0.0125961  c0.1424141,0.0204468,0.2849541,0.0389709,0.4274864,0.0576248c0.3874245,0.0518417,0.7754517,0.09935,1.1643143,0.1383972  c0.243042,0.0244141,0.4864006,0.0456314,0.7298508,0.0658112c0.0135002,0.0011826,0.0269394,0.0027313,0.0404396,0.0039062  c0.0910759,0.0079193,0.1822624,0.0145798,0.2733917,0.0218658c0.2070312,0.0161362,0.4141121,0.0315475,0.6212883,0.0453568  c0.0280075,0.0018616,0.0559921,0.004303,0.0840073,0.006134c0.0130653,0.0008545,0.0261574,0.0013351,0.0392227,0.0021744  c0.2864571,0.0184326,0.5730553,0.0338211,0.8597183,0.0478439c0.0653305,0.0032043,0.1306648,0.0064697,0.1959991,0.0095062  c0.039753,0.0018387,0.0794945,0.0039978,0.1192474,0.0057831c0.0331573,0.0014877,0.0663109,0.0026703,0.099472,0.0041428  c0.2010612,0.0091324,0.4021111,0.0183792,0.6032143,0.0274048c0.5170288,0.0231628,1.0344963,0.0391617,1.5518532,0.0519485  c0.0201721,0.0005035,0.0403366,0.000946,0.0605087,0.0014496c0.0010834,0.0000305,0.0021591,0.0000763,0.0032463,0.0000992  c0.0110016,0.0002747,0.0219955,0.0004959,0.0329971,0.0007629c0.6137314,0.0153275,1.2274704,0.0316467,1.8414116,0.0333176  c0.5942955,0.0017471,1.1889191-0.0163498,1.7829132-0.0311279c0.0055962-0.000145,0.0111885-0.0002823,0.0167847-0.0004272  c0.0027275-0.0000687,0.0054588-0.0001373,0.0081863-0.000206c0.5232086-0.0130157,1.0469666-0.0261459,1.5698395-0.0496445  c0.1195335-0.0053558,0.239006-0.011116,0.3585205-0.0165405c0.5214882-0.0223236,1.0428467-0.047905,1.5638618-0.0787659  c0.0027809-0.0001602,0.0055656-0.0003815,0.0083466-0.0005493c0.0131378-0.0007629,0.0262871-0.0013275,0.0394211-0.0020981  c0.0378532-0.002243,0.0756836-0.0055313,0.1135368-0.0078812c0.2005424-0.0124435,0.4010544-0.0263977,0.6015053-0.0417404  c0.0688095-0.0052185,0.137619-0.0104904,0.2064095-0.0160294c0.2427788-0.0197144,0.4854507-0.0407333,0.7277107-0.0640869  c0.0032997-0.0003128,0.0066147-0.0005569,0.0099106-0.0008698c0.0119133-0.001152,0.0237808-0.0027084,0.0356941-0.0038681  c0.1670723-0.0164719,0.3340683-0.033577,0.5008545-0.0520554c0.0758057-0.0084,0.151516-0.0179977,0.2272873-0.0268326  c0.0702171-0.0081863,0.1404343-0.0162811,0.2106094-0.0248642c0.2641182-0.0324554,0.527977-0.0671539,0.7913055-0.105751  c0.0062408-0.0009155,0.0125084-0.0015945,0.0187531-0.0025101c0.0804901-0.0118408,0.1609344-0.0244141,0.2414055-0.0367126  c0.0602303-0.0091934,0.12043-0.0185852,0.1806412-0.0280075v0.0000839  c0.0000076-0.0000305,0.0000153-0.0000534,0.0000191-0.0000839c0.0210953-0.0032959,0.042202-0.0064621,0.0632896-0.009819  c0.3994522-0.0635605,0.7981873-0.1332245,1.1945686-0.2123795c0.5832138-0.1164856,1.1660957-0.2371674,1.7432404-0.3812332  c0.0157776-0.0039368,0.0315399-0.007988,0.0473137-0.0119247c0.5441704-0.1322708,1.0882835-0.2741776,1.6183319-0.4555817  c0.0142555-0.0048523,0.0287323-0.0089874,0.0429649-0.0138931c0.016716-0.0057678,0.0333252-0.012001,0.0500259-0.0178604  c0.0224571-0.0078812,0.0448532-0.0159836,0.0672722-0.0240173c0.0751038-0.0270615,0.1499939-0.054718,0.2244148-0.0836258  c0.0035591-0.0013809,0.0071754-0.0026169,0.0107307-0.0039978c0.0014687-0.0005798,0.0029144-0.0012207,0.0043831-0.0017929  c0.2493019-0.097084,0.494278-0.2059784,0.731163-0.3299637c0.0047455-0.0024872,0.0094604-0.0050201,0.0142059-0.007515  c0.0737457-0.0388412,0.1466064-0.0792542,0.2185287-0.1212006c0.0057526-0.0033493,0.0115509-0.0066223,0.0172882-0.0099945  c0.0832214-0.0489502,0.1656265-0.0992737,0.246048-0.1527863c0.0643997-0.0428619,0.1270218-0.0878525,0.1887436-0.1339035  c0.0135422-0.0100937,0.0267563-0.0205688,0.0401688-0.0308228c0.043251-0.0327454,0.0855026-0.0668182,0.1275253-0.1011887  c0.0325928-0.0269394,0.0653-0.0537567,0.0970383-0.0816269c0.0084229-0.0073318,0.0164871-0.0151062,0.0248489-0.0225067  c0.0456085-0.0403442,0.0916214-0.0801773,0.1354523-0.1227112c0.0867004-0.0841446,0.1685486-0.1735458,0.2481155-0.2651672  c0.0014114-0.0016174,0.0027924-0.0032578,0.0041962-0.0048828c0.0506287-0.0584259,0.0992584-0.1187515,0.1468887-0.1800003  c0.0191803-0.024559,0.0377731-0.0495529,0.0564804-0.0745163c0.0111237-0.0149536,0.0228119-0.0294113,0.0337601-0.0445251  c0.0069122-0.0095367,0.0129852-0.019722,0.0198364-0.0293045c0.0579529-0.080452,0.1136475-0.1624985,0.1667709-0.2463608  c0.0027542-0.0043411,0.0056229-0.0085907,0.0083694-0.0129395c0.060173-0.0956421,0.1183472-0.192543,0.1721954-0.2918015  c0.0168304-0.0310211,0.0345764-0.0615845,0.0507812-0.0928955c0.0037918-0.0072174,0.007225-0.0146103,0.0109863-0.0218506  c0.1160812-0.2238159,0.2165909-0.4555817,0.2974625-0.6930084c0.1084824-0.3184662,0.1677246-0.6471863,0.2133713-0.9785385  c0.0333557-0.2290726,0.0602493-0.4595337,0.0872345-0.6898041c0.0602188-0.4816208,0.1251602-0.96241,0.19561-1.4426498  c0.0002594-0.0012436,0.0004349-0.0025024,0.0006866-0.0037537c0.0240402-0.1309891,0.0505676-0.2615356,0.0719681-0.3931732  c0.0015945-0.0098114,0.0037918-0.0194855,0.0053024-0.0293121c0.0044098-0.0286255,0.0075989-0.0573425,0.0115738-0.0860062  c0.00737-0.0532532,0.0147324-0.1065063,0.021492-0.1597977c0.0100174-0.078949,0.02211-0.1576767,0.033905-0.2364197  c0.0575943-0.3255386,0.119873-0.6501541,0.186409-0.9744339c0.0400848-0.1955032,0.0797195-0.3908386,0.1184998-0.5862732  c0.031517-0.1587982,0.0615311-0.3178406,0.0903168-0.4770966c0.0164108-0.0908508,0.0333252-0.1816025,0.0481567-0.2727585  c0.003624-0.0222549,0.0082397-0.0443115,0.0117569-0.0665817c0.0055618-0.0352554,0.0097656-0.0707245,0.0151367-0.1060104  c0.0012665-0.0038681,0.0025558-0.0077133,0.0038223-0.0115814h-0.0021667  c0.0022507-0.0149078,0.0041656-0.0298615,0.0063858-0.0447769c0.0093613-0.0621262,0.019928-0.1239929,0.0284348-0.1863251  c0.0052109-0.038208,0.0095367-0.0765305,0.0145569-0.1147614c0.009819-0.0748672,0.0194168-0.149765,0.0285034-0.2247238  c0.0102463-0.0839462,0.0196915-0.1679916,0.0289383-0.2520599c0.0091095-0.0825272,0.0185471-0.1650162,0.0268021-0.2476349  c0.0158386-0.1599731,0.0304947-0.3200607,0.0431747-0.4803009c0.0020905-0.0260696,0.0036926-0.0521851,0.0057068-0.07827  c0.0082932-0.1074829,0.0165863-0.2149734,0.0235214-0.3225479c0.0021515-0.0334091,0.0031433-0.0668945,0.0051956-0.1003189  c0.0016403-0.0270538,0.0039444-0.0540848,0.0055161-0.0811462c0.0118332-0.2042999,0.0217896-0.4087067,0.0304871-0.6131744  c0.0045853-0.107811,0.0081024-0.2156754,0.0119095-0.3235168c0.005394-0.1537704,0.0102615-0.3075485,0.0142288-0.4613419  c0.0016708-0.0651093,0.0045624-0.130188,0.0060196-0.1952972c0.0009613-0.0431137,0.0012589-0.0862732,0.0021515-0.1293945  c0.0010529-0.0507278,0.0015869-0.1014862,0.002533-0.1522217c0.0026474-0.1490326,0.0052261-0.2980652,0.0069046-0.4470978  c0.000206-0.0178909,0.0000534-0.0357895,0.0002365-0.0536804c0.0034714-0.2875214,0.0056229-0.5750351,0.0039444-0.8624496  c-0.0000305-0.0056686-0.0000687-0.0113449-0.0000992-0.0170135c-0.0017014-0.2994919-0.0031967-0.5989532-0.0055466-0.898407  c-0.0012589-0.1530075-0.0007324-0.3060989-0.0028381-0.4590607c-0.0017929-0.1329346-0.0051346-0.2658157-0.0074158-0.398735  c-0.0004044-0.0232925-0.0004272-0.0465698-0.0008621-0.0698624c-0.0079422-0.4283371-0.0131226-0.8566742-0.0285721-1.28479  c-0.0020065-0.055603-0.0040131-0.1112137-0.0060196-0.1668167c-0.0034409-0.1172104-0.0060196-0.2344284-0.0097427-0.3516464  c-0.0209656-0.6591034-0.0403824-1.3183212-0.0654221-1.9774246c-0.0397034-1.0438766-0.0793076-2.0877533-0.1190186-3.1316223  c-0.0084-0.2212372-0.0177002-0.4425049-0.0269165-0.6637955c-0.0044479-0.1233063-0.0088959-0.2466125-0.0133514-0.3699265  c-0.0110321-0.3082123-0.0232773-0.6163101-0.0293427-0.924736c-0.0004272-0.0215836-0.0007858-0.0431519-0.0012131-0.0647354  c-0.0142746-0.7447433-0.0239334-1.48909-0.0299606-2.2339172c-0.0021591-0.3773956-0.0035934-0.7547226-0.000824-1.1321335  c0.0044022-0.6034775,0.008873-1.2068863,0.0133133-1.8103371c0.0025711-0.3173256,0.0051498-0.634594,0.0100861-0.9519806  c0.0005035-0.0305176,0.0007935-0.0610466,0.001297-0.0915642c0.0130157-0.8132095,0.0260468-1.6264076,0.0389557-2.4396057  c0.0068817-0.4295387,0.0137405-0.8590126,0.0206146-1.2885208c0.0036774-0.2294884,0.0073624-0.4589729,0.0110474-0.6884727  c0.0139999-0.8731155,0.0280151-1.7463341,0.0420227-2.6194496c0.0106277-0.6661072,0.021347-1.3323097,0.0319824-1.9984283  c0.0023727-0.1384888,0.0048599-0.276989,0.0073547-0.4154968c0.0007553-0.0024796,0.0016022-0.0046883,0.0023575-0.0071793  l-0.002243,0.0010567c0.0032501-0.1806335,0.0057678-0.3612823,0.0079575-0.5419388  c0.0005951-0.0443039,0.0016327-0.0885925,0.0021286-0.1328926c0.002182-0.1923294,0.0024261-0.384655,0.0025177-0.5769768  c0.0013809-0.3970909,0.0020752-0.7942009,0.0028763-1.1913033c0.0014801-0.5019951,0.0029449-1.0039825,0.0044174-1.50597  c0.0021133-0.7290688,0.0042267-1.4581413,0.0063324-2.1872139c0.0003128-0.1094017,0.0006332-0.2188034,0.000946-0.3282051  c0.0011368-0.4065361,0.003746-0.813179,0.0035019-1.2198257c-0.0000153-0.0285301,0.0003052-0.0570602,0.0002518-0.0855942  c-0.000267-0.1907082-0.0020447-0.3814545-0.0040283-0.572197c-0.0032272-0.402092-0.0071869-0.804184-0.0108185-1.2062645  c-0.0044937-0.5332184-0.0089798-1.0664406-0.013504-1.5997009c-0.006958-0.8243561-0.0139084-1.6485977-0.0208511-2.4729576  c-0.0031967-0.3780022-0.0063934-0.7558937-0.0095825-1.1338959c0.4788361,0.1938705,0.9561462,0.390976,1.4331512,0.5896149  c0.050087,0.0213509,0.1003113,0.0420876,0.1506348,0.0629311c0.117836,0.0511513,0.2720642,0.1367111,0.407196,0.1349068  c0.0058365-0.0000801,0.0116119-0.0003586,0.0173721-0.000782c0.0066681-0.0004845,0.013588,0.0000763,0.020134-0.0009003  c0.0061722-0.0009155,0.0112305-0.0034409,0.0169754-0.0049782c0.0043335-0.0011215,0.0090256-0.0006065,0.0132675-0.0020981  c0.0032654-0.001152,0.0060272-0.0031395,0.0091858-0.0044785c0.0017395-0.0007401,0.0033569-0.0016785,0.0050583-0.0024719  c0.0124817-0.0060463,0.0235138-0.0140228,0.0338287-0.0229034c0.104126-0.0828705,0.1310577-0.2851219,0.1388397-0.4435196  c0.0396271-0.3429298,0.004631-0.7162361-0.1050491-1.0471115c-0.0076675-0.0231018-0.0160294-0.0457458-0.0244217-0.0683937  c-0.009819-0.0271454-0.0190506-0.0544968-0.0301514-0.0811653c-0.0202408-0.0486565-0.0424652-0.09655-0.0672226-0.1433601  c-0.002594-0.0049171-0.0056381-0.0095978-0.0082779-0.0144958c-0.0018463-0.0034142-0.0032196-0.0072327-0.0050812-0.0106316  c-0.0047226-0.0085907-0.0104904-0.0165901-0.0153351-0.025116c-0.0271149-0.0477562-0.0552216-0.0949516-0.0858612-0.1406479  c-0.0009384-0.0014191-0.0018692-0.0028534-0.0028076-0.0042763c-0.0364075-0.054039-0.0756378-0.1063194-0.116333-0.1576157  c-0.3912735-0.5041161-0.9682159-0.8927498-1.4933319-1.2134132c-0.0893478-0.0546036-0.1796951-0.107666-0.2711411-0.1585197  c-0.0555115-0.0309486-0.0487823-0.0249367-0.0514069-0.0780792c-0.0008621-0.1389542-0.0017319-0.2779045-0.0026016-0.4168587  c0.0003433-0.0322304,0.0007248-0.0644646,0.000618-0.0965462c-0.0023193-0.6218262-0.0046387-1.2437592-0.0069504-1.8655777  c-0.000618-0.1691246-0.0017242-0.3382797-0.0027618-0.507431c0.0009079-0.0735092,0.0017853-0.1470184,0.0026321-0.22052  c0.0076065-0.6640663,0.0152206-1.3280334,0.0228348-1.991993c0.0111313-0.9731655,0.0222778-1.9463234,0.0334167-2.9194889  c0.0127945-1.1122665,0.0254822-2.2244186,0.0382767-3.3366852c0.0124741-1.0844669,0.024826-2.168932,0.0372849-3.2533989  c0.0026779-0.2335415,0.0053482-0.4670982,0.0080261-0.7006531c0.0069656-0.5552444,0.0139313-1.1104889,0.0209045-1.6657333  c0.0063934-0.5074272,0.0146713-1.0149708,0.0190811-1.5224056c0.0019379-0.2228298,0.0020752-0.4457397,0.0008469-0.6686649  c0.0001221,0.0001755,0.0002365,0.0003433,0.0003586,0.0005188l-0.0003586-0.0005589  c-0.0002136-0.039341-0.0010376-0.0786667-0.0013809-0.1180077c-0.000885-0.1016788-0.0017471-0.2033577-0.0035477-0.3050308  c-0.0015411-0.0883083-0.0041733-0.1765766-0.0065689-0.264864c-0.0024872-0.0914049-0.0033798-0.1828775-0.0068054-0.2742281  c-0.0019302-0.0516081-0.0058975-0.1030598-0.0082245-0.1546402c-0.0068665-0.1599998-0.0151215-0.319932-0.0255356-0.4797497  c-0.0019684-0.0301361-0.0029449-0.0603323-0.005043-0.0904617c-0.0186768-0.2679472-0.0465546-0.5349178-0.0815506-0.8008728  c-0.0068588-0.0521383-0.0131226-0.104352-0.020607-0.1563969c-0.0007477-0.0053797-0.0016174-0.0107327-0.0023804-0.0161114  c-0.0170593-0.1176567-0.036293-0.2349634-0.0565796-0.3521013c-0.0077057-0.0454063-0.0136108-0.0910282-0.0219116-0.1363602  c-0.006218-0.033927-0.014389-0.0674362-0.0208817-0.1013021c-0.0245285-0.1278238-0.0504227-0.2553501-0.0788193-0.3823318  c-0.0111389-0.0503082-0.0231705-0.1004267-0.0348969-0.1506205c-0.0348816-0.1493549-0.0714035-0.2983665-0.1113739-0.4465694  c-0.1641083-0.6087303-0.360321-1.2142487-0.5996552-1.8000536c-0.0036926-0.0090351-0.0070953-0.018199-0.0108032-0.0272207  c-0.0017548-0.004343-0.0036545-0.008625-0.0054169-0.0129604c-0.1644287-0.405345-0.3511658-0.8018017-0.5739594-1.1769962  c-0.1836472-0.309226-0.3990097-0.5873127-0.6408539-0.8412962c-0.0364609-0.03829-0.0732422-0.0762901-0.1109238-0.1134682  c-0.0124359-0.0124559-0.0250549-0.0247707-0.0376511-0.0371056c-0.1028595-0.1007299-0.2092514-0.1988478-0.3234787-0.2912626  c-0.6678238-0.5404119-1.4177132-0.9908123-2.1582336-1.4230137c-0.0355568-0.020751-0.0716896-0.0406194-0.1073265-0.0612555  c-0.1426506-0.082592-0.2856102-0.1647258-0.4295921-0.2451901c-0.0373917-0.0208583-0.0750275-0.041286-0.1125259-0.0619693  c-0.1264496-0.0699544-0.2536125-0.1386428-0.3811569-0.2066245c-0.0872574-0.0463014-0.1746979-0.0922265-0.2624474-0.1375518  c-0.0790253-0.040956-0.1584358-0.0811105-0.2378998-0.121171c-0.0981636-0.0494661-0.1964149-0.0987506-0.2951393-0.1469712  c-0.0215912-0.0105438-0.0429306-0.0216599-0.0645485-0.0321426c-0.095356-0.0462613-0.1919518-0.0899377-0.2881126-0.1345425  c-0.0502205-0.023262-0.0997276-0.04812-0.150135-0.0709643c-0.0073929-0.0033531-0.014946-0.006248-0.0223465-0.0095878  c-0.1441765-0.0650325-0.2894516-0.1275873-0.4353333-0.1887012c-0.0011787-0.0004916-0.0023613-0.0009561-0.00354-0.0014477  c-0.3629684-0.151967-0.7309113-0.291997-1.1041145-0.4167967c-0.0764618-0.0255713-0.1537895-0.0481133-0.2306137-0.0724387  c-0.0129395-0.0041003-0.025898-0.0081401-0.0388451-0.012207c-0.154892-0.0491834-0.310997-0.0948992-0.4673424-0.1399488  C58.4510193,4.5961552,58.4088326,4.5822182,58.3659782,4.5702c-0.0609322-0.0170813-0.1224976-0.0321627-0.1835976-0.0487256  c-0.0255432-0.0069213-0.051178-0.0135331-0.0767479-0.0203667c-0.6104317-0.163157-1.2282524-0.302177-1.8480721-0.4259067  c-0.1128349-0.0225277-0.225605-0.045743-0.338501-0.0673685c-0.036808-0.0070496-0.0736847-0.01389-0.1105003-0.0209327  c-0.3086586-0.0601041-0.6175423-0.1189625-0.926445-0.1766362c-0.0462151-0.0086315-0.0925827-0.0165896-0.138813-0.0251672  c-0.1365738-0.02543-0.2732391-0.0503011-0.4099159-0.0751655c-0.0000267-0.0000875-0.0000305-0.0001752-0.0000572-0.0002627  l0.0000191,0.0002491c-0.1581078-0.0287626-0.3162155-0.0574312-0.4744911-0.0851905  c-0.0743256-0.0130348-0.1487617-0.0253155-0.2231331-0.0380878c-0.1298447-0.022306-0.2596169-0.0451033-0.3896103-0.0664935  c-0.1315269-0.0216463-0.2631111-0.0429556-0.3947334-0.0639889c-0.0490875-0.0078371-0.0980225-0.0167785-0.1471329-0.0244808  c-0.0564079-0.0088401-0.1130791-0.0161386-0.1695404-0.0246556c-0.1774902-0.0271132-0.3550949-0.0534184-0.5329628-0.0775084  c-0.0557976-0.0075612-0.1116524-0.0147181-0.1674995-0.0218885c-0.1202888-0.0154452-0.2407074-0.0297661-0.3612442-0.0431106  c-0.0908089-0.0100386-0.1816673-0.0195789-0.2726135-0.0281837c-0.0642242-0.0061133-0.1284714-0.0120113-0.192791-0.0173504  c-0.127903-0.0106244-0.2559395-0.0201311-0.3842354-0.0273421c-0.014698-0.0008283-0.0295372-0.0010369-0.0442429-0.0018313  c-0.0142517-0.0007272-0.0284462-0.0022287-0.0426979-0.0029087c-0.0616989-0.002949-0.123642-0.0041137-0.185421-0.0065374  C49.7023277,3.151973,49.0482292,3.1521549,48.3991241,3.1817861z M56.0074272,26.5279846  c0.0156708,0.0041218,0.0312691,0.0084839,0.0469246,0.0126514c0.1351929,0.0359001,0.2699661,0.0733337,0.4043808,0.1120682  c0.0118484,0.0034142,0.0237045,0.0068264,0.0355492,0.0102615c0.2883797,0.0837364,0.5750923,0.173317,0.8606186,0.2665863  c0.457283,0.1502914,0.9098778,0.3128414,1.3606949,0.4811707c0.0803299,0.0303574,0.160408,0.0613155,0.2405319,0.0921993  c0.105732,0.0404434,0.2112885,0.0813255,0.3165855,0.1230431c0.096817,0.0383568,0.1934013,0.0769958,0.2898216,0.1163635  c0.2628021,0.1066341,0.5240974,0.2170734,0.7837982,0.3311138c0.0310974,0.0136414,0.0622368,0.027153,0.0932884,0.0408955  c0.0759888,0.0336971,0.1517639,0.0678329,0.2274284,0.1022243c0.0688095,0.0311871,0.1374168,0.0628185,0.2059517,0.0946236  c0.0533257,0.0247498,0.106636,0.0495205,0.159771,0.0746803c0.094429,0.0447197,0.1883965,0.0904026,0.2821541,0.1365566  c0.0370216,0.0182056,0.0742683,0.0359325,0.1111908,0.0543613c0.1184998,0.0591412,0.2362709,0.11973,0.353569,0.1812401  c0.0574646,0.0301304,0.1144447,0.0611553,0.1716003,0.0918846c0.0704002,0.0378304,0.1406441,0.0759182,0.2105484,0.1146469  c0.0403862,0.0223732,0.080574,0.0451088,0.1207886,0.0677929c0.0116005,0.0065441,0.0232544,0.0129871,0.0348434,0.0195522  c0.093647,0.0530949,0.1867065,0.1072197,0.2793655,0.1620598c0.0269852,0.015976,0.0541458,0.0316372,0.0810432,0.0477619  c0.0360489,0.0216465,0.0718193,0.0440865,0.107811,0.0659275c0.3928642,0.2394753,0.777977,0.4922791,1.1530685,0.7586975  c0.1691093,0.1201286,0.3268547,0.2611065,0.4993782,0.3751678c0.0381393,0.0252151,0.1038895,0.0379333,0.1219254,0.0678062  L64.270401,32.023632l-0.739151,3.813343l-0.1738205,0.8967667l-0.366169,1.8890762l-1.0349159,5.3391876  c-0.000061,0.0003014-0.0001373,0.0005989-0.0001984,0.0009003c-0.794239-0.2556992-1.5885849-0.5055542-2.4003677-0.70047  c-0.8202667-0.1969032-1.650692-0.3445015-2.482769-0.4815063c-0.8011894-0.1319313-1.607563-0.2378311-2.4142647-0.3301582  c-0.8361588-0.0957489-1.6736374-0.1716499-2.513546-0.2238197c-0.8060417-0.0500793-1.6140709-0.0712624-2.4215508-0.0751266  c-0.8198318-0.0039711-1.6409798,0.0027618-2.4600449,0.0429077c-0.8593216,0.042141-1.7155571,0.107666-2.5714569,0.1945877  c-0.7936897,0.0806389-1.5868225,0.1801376-2.3755417,0.3002625c-0.8385849,0.1277428-1.6766167,0.2632027-2.5059319,0.4429016  c-0.7843094,0.1699905-1.5609055,0.3756104-2.3248062,0.6216011c-0.2160988,0.0696068-0.4323082,0.1392174-0.648407,0.2087135  c-0.0001221-0.0005798-0.0002632-0.0011635-0.0003853-0.0017433l-1.0346603-5.3379173l-0.3661079-1.8887558l-0.1739159-0.8972282  l-0.556221-2.8695717l-0.1829491-0.9438629l-0.2927322-1.5102196c0.0000458-0.0000534,0.0000534-0.0001888,0.000103-0.0002422  c0.0058441-0.0071697,0.0569191-0.0145626,0.0665169-0.0186424c0.025486-0.0108147,0.0485382-0.026144,0.0711555-0.0419197  c0.1864243-0.1301651,0.3619308-0.2776566,0.5476952-0.409586c0.0382347-0.0271606,0.0771599-0.0534115,0.1157722-0.08008  c0.0696297-0.047884,0.13937-0.0955658,0.209465-0.142643c0.0456505-0.0305195,0.0912018-0.0611668,0.1369667-0.0915184  c0.0854111-0.0566444,0.1710472-0.1126347,0.2574043-0.1678505c0.1306152-0.0835133,0.2618599-0.1659718,0.3943405-0.246233  c0.1492615-0.0906925,0.2995453-0.1796741,0.4513855-0.2659817c0.0096931-0.0054932,0.0194893-0.010807,0.0291939-0.0162792  c0.0273666-0.0154533,0.0548935-0.0306149,0.0823364-0.0459194c0.0883331-0.0492764,0.1769905-0.0979614,0.2661133-0.145792  c0.0392265-0.0210533,0.0785179-0.0419464,0.1178856-0.0627232c0.2187042-0.1149712,0.4397888-0.2249451,0.6623383-0.3318558  c0.0834312-0.040081,0.1668549-0.0801678,0.2507439-0.1192856c0.1147423-0.0535603,0.2296104-0.1066628,0.3451614-0.1584644  c0.1138992-0.0511761,0.2283707-0.1011486,0.3428955-0.1509972c0.0439644-0.0191345,0.0876465-0.0388622,0.1316948-0.0578213  c0.0379944-0.0163612,0.0763435-0.0320435,0.114418-0.0482559c0.3463631-0.1462975,0.6956367-0.2861462,1.0466347-0.4210243  c0.0832253-0.0319347,0.1661186-0.0647297,0.2495804-0.0959568c0.0248108-0.0089874,0.049633-0.0179501,0.0743713-0.0271606  c0.1973381-0.0734825,0.3948784-0.146244,0.5932236-0.2166691c0.0081863-0.0029011,0.0163536-0.0058708,0.0245399-0.0087738  c0.214817-0.076067,0.4303055-0.150156,0.6465149-0.2220688c0.2757721-0.0917149,0.5526733-0.1799831,0.8317375-0.2614288  c0.6074829-0.1773834,1.2219162-0.322443,1.8450623-0.4323101c0.1021042-0.0180035,0.2046318-0.0341148,0.3070717-0.0505905  c0.4479904-0.0699673,0.8977699-0.126543,1.3481827-0.1786232c0.0101471-0.0010891,0.0203018-0.0022354,0.0304489-0.0033188  c0.080719-0.009264,0.1617012-0.016489,0.2425156-0.0250721c0.6386375-0.0641575,1.2776108-0.1188889,1.9182968-0.1587067  c0.2336273-0.0140934,0.4673653-0.0262127,0.7012787-0.0349712c0.4795074-0.01791,0.9570808-0.0206165,1.4363861-0.0063686  c0.052124,0.001791,0.1042442,0.0031509,0.1563568,0.0052853c0.0484505,0.0019779,0.0968857,0.0040188,0.1453209,0.0062752  c0.1142349,0.0051842,0.2284393,0.0111485,0.3426094,0.0180225c0.0356407,0.0021019,0.0712776,0.0041218,0.1069107,0.0063419  c0.0780869,0.0049839,0.156147,0.0103493,0.2342072,0.0158577c0.153286,0.0105896,0.3064537,0.0219421,0.459549,0.0341682  c0.0430298,0.0034409,0.0860863,0.0066795,0.1291046,0.0102196c0.1049156,0.0083027,0.2097473,0.018301,0.31464,0.0273705  c0.2510948,0.021719,0.5018921,0.0462132,0.7524414,0.0733337c0.0021896,0.0002365,0.0043678,0.0004711,0.0065498,0.0007076  c0.2936897,0.0316696,0.586956,0.0670452,0.8799362,0.1052399c0.0537224,0.0071583,0.1074905,0.013958,0.1611633,0.021431  c0.0233727,0.003252,0.0466881,0.0069008,0.0700493,0.0102139c0.1720314,0.0240765,0.3436852,0.0508137,0.5150185,0.0797176  c0.0714684,0.0120583,0.1429825,0.0237789,0.2143059,0.0366669c0.0460854,0.0083275,0.092083,0.0170746,0.1381111,0.0257454  c0.1033821,0.0193768,0.2065887,0.03965,0.3096161,0.0608253c0.0324593,0.0066853,0.0649223,0.0132904,0.0973434,0.0201435  c0.1228409,0.0259552,0.2454262,0.0531025,0.3676872,0.0816097c0.0169411,0.003952,0.033947,0.0075817,0.0508728,0.0115814  C55.7174721,26.4534664,55.8626938,26.4898567,56.0074272,26.5279846z M65.3443832,52.8924065l-2.9095116,1.7137566  c0.0119133-0.3180313,0.0234642-0.6360664,0.0352287-0.9540977c0.0183449-0.4973335,0.0366936-0.9945908,0.0550385-1.4918594  c0.0111427-0.295414,0.0227661-0.5908318,0.035202-0.8862228c0.0058022-0.1312981,0.0111771-0.2625923,0.0177536-0.393856  c0.0138206-0.2981453,0.0297241-0.5962219,0.0455475-0.8943138c0.0242195-0.4853287,0.0539246-0.9703484,0.0829964-1.4554787  c0.0143394-0.2268372,0.0290031-0.4536591,0.0453186-0.6803551c0.0005455-0.0076675,0.0010452-0.0153236,0.0015945-0.0229836  c0.0096893-0.1337624,0.0198021-0.2675247,0.0305481-0.401226c0.0179901-0.2237587,0.0385323-0.4473076,0.0625763-0.6704826  c0.0007324-0.0068321,0.0013466-0.0136795,0.0020943-0.0205154c0.0077744-0.0714607,0.016613-0.1428032,0.02528-0.2141571  c0.0198975-0.166832,0.0439453-0.33321,0.0677109-0.4995995c0.0651741-0.4402199,0.1403809-0.8782997,0.220993-1.3161621  c0.0043297-0.0233154,0.0085983-0.0466385,0.0129547-0.0699539c0.0361099-0.194458,0.0741425-0.388588,0.1128769-0.5825729  c0.0135994-0.0681114,0.0272751-0.1362,0.0411224-0.2042542c0.0387535-0.1904068,0.0779152-0.3807297,0.1180687-0.5708466  c0.0447845-0.2118416,0.0886917-0.4238777,0.1330338-0.6358223c0.0198288-0.0947762,0.0407066-0.1893196,0.060833-0.2840385  c0.0351982-0.1656265,0.0700607-0.331337,0.1071701-0.4965324c0.1235542-0.5503159,0.2471848-1.1005402,0.3707619-1.650753  c0.0094223-0.0417976,0.0189362-0.0835762,0.0283432-0.1253815c0.1096802-0.4873009,0.21875-0.9747124,0.3289337-1.4619026  l1.1694031-0.0000114L65.3443832,52.8924065z M64.9818573,70.0297546l-0.1004639,4.7490234  c-0.0000076,0.0001221-0.0000229,0.0002518-0.0000229,0.0003815c-0.0404205-0.0945969-0.0808868-0.1891861-0.1212616-0.2835922  c-0.0054779-0.0130157-0.0107727-0.0267563-0.016304-0.0396194c-0.0493546-0.1147308-0.0986786-0.2294617-0.1480331-0.3441925  c-0.1957397-0.4579468-0.3913498-0.9159698-0.5881805-1.3734589c-0.3725204-0.8658295-0.7449265-1.7315521-1.1174507-2.5973816  c-0.0950317-0.2208405-0.1908607-0.4408951-0.2775803-0.6640244c-0.161911-0.423233-0.2730179-0.8529587-0.3271484-1.3055801  c-0.0129623-0.1082916-0.0228043-0.2169724-0.0328522-0.3255692c-0.0000458-0.0131531-0.0000916-0.0263062-0.0001411-0.0394592  c-0.0006981-0.1915817-0.0013924-0.3831558-0.0021057-0.5747299c0.0001945-0.0185394,0.0007133-0.037178,0.0007935-0.0556793  c0.004303-0.9397507,0.008606-1.8795929,0.0129089-2.8193359c0.0012779-0.2763062,0.0025368-0.5526314,0.0038033-0.8289566  c0.0045853-0.6226768,0.0091476-1.2453575,0.0137596-1.8680382c0.0006866-0.0960808,0.0013275-0.1921501,0.0020218-0.2882271  c0.0043144-0.2323303,0.0093307-0.464653,0.0132828-0.6969566c0.0045662-0.2687912,0.0091248-0.5375862,0.0136871-0.8063736  c0.0062981-0.303833,0.0125847-0.6076736,0.0188789-0.9115067c0.0111427-0.5367088,0.0222473-1.0733452,0.0333633-1.609993  c0.0044212-0.0046196,0.0100937-0.0088272,0.0187454-0.0127182l2.8818474-0.6132278L64.9818573,70.0297546z M33.9122124,74.7790451  l-0.1004677-4.7492981l-0.2815475-13.3092079l2.8862228,0.6141624c0.0062561,0.0033073,0.0106506,0.0073357,0.0140991,0.0119781  c0.0097504,0.4717865,0.0194855,0.9435692,0.0292625,1.4153214c0.0083351,0.4022102,0.0166702,0.8043861,0.0250053,1.2065659  c0.0075264,0.4438629,0.0150604,0.8877258,0.0226135,1.3315887c0.0019531,0.1163902,0.0024872,0.2327347,0.0041962,0.3490906  c0.00494,0.6716156,0.0098763,1.3431702,0.0148201,2.014782c0.0022011,0.4793968,0.0044022,0.9587898,0.0065765,1.4382133  c0.0032387,0.7115326,0.0065384,1.4230728,0.0097961,2.1345978c-0.000679,0.1829376-0.001358,0.3658752-0.0020409,0.5488052  c-0.000267,0.0072937-0.0008202,0.014595-0.0011177,0.0218964c-0.0014267,0.0351868-0.0032425,0.0704041-0.0054054,0.1056213  c-0.0080986,0.086113-0.0157623,0.1722794-0.0260429,0.2581482c-0.0587959,0.4916534-0.1817932,0.9567184-0.3676682,1.4152908  c-0.0898132,0.2216949-0.1847,0.4415588-0.2799759,0.6612167c-0.0310135,0.0706177-0.0618973,0.1412048-0.0922127,0.2117844  c-0.0903854,0.2103119-0.1807442,0.4206085-0.2711143,0.6309052c-0.2050629,0.4768219-0.4101219,0.9536209-0.6152344,1.4304733  c-0.277317,0.644989-0.5547523,1.289978-0.8321838,1.934967c-0.0096817,0.0224915-0.0189896,0.0463562-0.0285149,0.0692902  C33.9849281,74.6098404,33.9485626,74.6944427,33.9122124,74.7790451z M33.1473541,38.6231728l1.1691933-0.0000114  c0.0956383,0.4228363,0.1903305,0.8459129,0.2854919,1.2688293c0.1442299,0.6412163,0.2885513,1.2824249,0.4327965,1.9236412  c0.0030899,0.0139809,0.0062675,0.0279427,0.0093498,0.0419273c0.0439529,0.1954536,0.0852127,0.3915405,0.1266937,0.5875816  c0.0227966,0.1072159,0.0460663,0.2143059,0.068615,0.3215866c0.048893,0.2345619,0.0973701,0.4692078,0.1469688,0.7035294  c0.1105347,0.5223198,0.2093735,1.0469666,0.3065529,1.5719299c0.023243,0.1255836,0.0451927,0.2513847,0.0663719,0.3773117  c0.0022507,0.0133896,0.004673,0.0267601,0.006897,0.0401535c0.0201912,0.1215477,0.0393677,0.2432518,0.0577126,0.3650742  c0.002079,0.0138168,0.004364,0.0275993,0.006424,0.0414162c0.0403481,0.2706528,0.0762711,0.5419846,0.1079254,0.8138313  c0.0151253,0.1298447,0.0287971,0.2599144,0.0413666,0.3901291c0.0319977,0.3343391,0.0561676,0.6695404,0.0786896,1.0045586  c0.0039291,0.0600052,0.0080986,0.1200294,0.0118752,0.1800041c0.0341759,0.542614,0.0677872,1.0854492,0.0945892,1.6283913  c0.0118027,0.2276802,0.0237999,0.4553719,0.0353889,0.6830902c0.0091896,0.1806679,0.0182381,0.3613434,0.0255775,0.5420685  c0.0007896,0.0170059,0.0015564,0.0340118,0.0023308,0.0510216c0.0156517,0.3961334,0.0312996,0.7922325,0.0469551,1.1883316  c0.0136147,0.3688202,0.0272255,0.7376366,0.0408134,1.1064911c0.0141945,0.383934,0.0283508,0.7679482,0.0425186,1.1519432  l-2.9092369-1.7135963L33.1473541,38.6231728z M60.0073929,91.7025146c-0.2758865,0.2718048-0.704998,0.3817825-1.0651627,0.4860306  c-0.5195694,0.1503448-1.0513763,0.2541504-1.5831833,0.3497849c-0.1805153,0.0324554-0.3616219,0.0619659-0.5426331,0.0919189  c-0.3426476,0.0567093-0.6857185,0.1110687-1.0290756,0.1622391c-0.5429497,0.0808563-1.0873337,0.155098-1.6325989,0.2184143  c-0.2832794,0.0328827-0.5670013,0.0623322-0.8513832,0.0837326c-0.2184143,0.0163269-0.4424553,0.0329819-0.6606522,0.0059586  c-0.2170944-0.0268097-0.4245872-0.1074448-0.63517-0.1630402c-0.2074928-0.0548248-0.4173088-0.0914459-0.631752-0.1024857  c-0.5378723-0.0275726-1.0836906,0.0050812-1.6225624,0.0039749c-0.5289383-0.0011063-1.0581017,0.0063934-1.5870438-0.0007706  c-0.4752197-0.0064011-0.9296989-0.0210724-1.3930092,0.1025925c-0.2105827,0.0562515-0.4184113,0.1365585-0.6361656,0.161377  c-0.2242622,0.0255966-0.4541512,0.0076141-0.678299-0.0100403c-0.5471458-0.043129-1.092083-0.111412-1.6359138-0.1846619  c-0.5743866-0.0773239-1.1466866-0.1665573-1.7192001-0.2563553c-0.0428734-0.0067291-0.0856819-0.0139923-0.1285439-0.020874  c-0.4583054-0.0735626-0.9156189-0.1557083-1.3693657-0.2533569c-0.4876862-0.1049118-0.9958878-0.2216187-1.4498177-0.4338608  c-0.2617645-0.1223221-0.4973869-0.2962875-0.5601578-0.5933533c-0.0361824-0.1713104-0.0249329-0.3507919-0.0073929-0.5235443  c0.0268021-0.2640762,0.0694962-0.5271759,0.1138382-0.7888336c0.0829544-0.4901047,0.1703224-1.0115433,0.3753891-1.4676819  c0.0943146-0.2098083,0.2363968-0.3799057,0.3822327-0.5555267h0.000946  c0.0043793,0.0026474,0.0085983,0.0055237,0.0129814,0.0081558c0.447258,0.2685471,0.9371605,0.4425354,1.4378395,0.5809021  c0.0046883,0.0012894,0.0092468,0.0028,0.0139313,0.0040817c0.0020256,0.0005569,0.0040855,0.0009995,0.006115,0.0015488  c0.0115242,0.0031662,0.0229721,0.0065765,0.0345116,0.0097046c0.1616135,0.0437775,0.3240929,0.0839844,0.4869614,0.1225128  c0.0593147,0.0140381,0.1188011,0.0272903,0.178257,0.0407104c0.1120338,0.025383,0.2243118,0.0497055,0.3367958,0.0730591  c0.0691261,0.0143433,0.1381989,0.0289764,0.2074661,0.0426636c0.1538467,0.0304108,0.30793,0.0596542,0.4622841,0.0873947  c0.016571,0.0029755,0.0332069,0.0055389,0.0497856,0.0084839c0.0013847,0.0002441,0.0027733,0.0004654,0.004158,0.0007095  c0.1934357,0.0337601,0.3872337,0.065361,0.5811729,0.0954437c0.0032463,0.0005035,0.006485,0.001091,0.0097313,0.0015945  c0.0038986,0.0006027,0.0078087,0.0011063,0.0117073,0.001709c0.1534462,0.0237198,0.3071709,0.0456161,0.4609222,0.0672989  c0.1401787,0.0194702,0.2804298,0.0383453,0.4207764,0.056572c0.0361633,0.0046921,0.0723,0.0096588,0.1084671,0.0142899  c0.0088959,0.0011444,0.0178223,0.0020523,0.0267143,0.0031815c0.1848717,0.0235748,0.3701401,0.0447693,0.5553741,0.06604  c0.2099304,0.0235596,0.4199944,0.0457153,0.6302147,0.0663528c0.0685883,0.0067368,0.1371078,0.0141907,0.2057152,0.0206299  c0.0162277,0.0015259,0.0324669,0.0026779,0.0486908,0.0041733c0.0524979,0.0047379,0.1048927,0.0108719,0.157402,0.0153503  c0.0826187,0.0070419,0.1653709,0.0126495,0.248024,0.0193939c0.1046638,0.0085526,0.2093658,0.0165863,0.3140755,0.0245667  c0.3900261,0.0297012,0.7802696,0.0566254,1.1709938,0.0749512c0.0836105,0.0039215,0.1672592,0.0051346,0.2508812,0.0083847  c0.0888596,0.0039749,0.1776581,0.0085449,0.2665596,0.0121384c-0.0229454,0.1828995-0.0142326,0.3710861,0.0048599,0.5532074  c0.0074463,0.0703278,0.0175591,0.1423264,0.0424042,0.2088852c0.0083237,0.0224075,0.0182724,0.0442276,0.0303879,0.0651321  c0.1141739,0.1967926,0.3580704,0.2079391,0.560379,0.2123489c0.4372711,0.0094833,0.8861313,0.0263596,1.3225212-0.0055161  c0.1895142-0.0139008,0.377491-0.0605621,0.4597778-0.2529373c0.0389366-0.091011,0.0474319-0.1929398,0.0554848-0.2903442  c0.0135727-0.1628189,0.0197487-0.3281784-0.0006599-0.4907761h-0.0001411  c-0.0000267-0.0002213-0.0000343-0.0004425-0.000061-0.0006638c0.0964165-0.0038452,0.1928444-0.0080032,0.289299-0.011734  c0.0381546-0.0014648,0.0762978-0.00177,0.1144562-0.0033798c0.0466194-0.0019684,0.0931778-0.0047302,0.1397743-0.0069351  c0.0065002-0.0003128,0.0130005-0.0004654,0.0195007-0.0007858c0.0077744-0.0003815,0.0155373-0.000946,0.0233154-0.0013351  c0.2003212-0.0099869,0.4005356-0.0213623,0.6006241-0.0343246c0.0018921-0.0001221,0.0037842-0.0002289,0.0056686-0.000351  c0.1979523-0.0128479,0.3957634-0.0273209,0.5934982-0.0429001c0.0205421-0.0015945,0.0410919-0.0032654,0.0616417-0.0048828  c0.0902176-0.0070877,0.1804466-0.0140686,0.2706528-0.0214386c0.3167686-0.025856,0.6333656-0.0577469,0.949646-0.0923233  c0.0004044-0.0000381,0.0008087-0.0000839,0.0012131-0.0001221c0.1639404-0.0173721,0.327755-0.0363312,0.4915466-0.0556107  c0.0447655-0.0055313,0.0897484-0.0097961,0.1344681-0.0155182c0.0022812-0.0002899,0.0045776-0.0005112,0.0068588-0.0008011  c0.0129814-0.0016556,0.0259361-0.0034332,0.0389099-0.0050964c0.4188576-0.051239,0.8368797-0.1096649,1.2535629-0.1759644  c0.1570244-0.0245361,0.3139191-0.0500488,0.4706268-0.0771713c0.0760536-0.0131607,0.1519508-0.0275345,0.2279129-0.0414352  c0.034996-0.0064011,0.0700188-0.0125198,0.1049919-0.0190887c0.0377045-0.0069733,0.0754204-0.0143433,0.1131363-0.0214767  c0.4720154-0.0893173,0.9433479-0.1943283,1.4043922-0.3287048c0.1006546-0.0286789,0.2009277-0.0585861,0.3004456-0.0906754  c0.0213432-0.0069733,0.0426598-0.0140152,0.063942-0.0211411c0.0354614-0.0118637,0.0712547-0.0228882,0.1065407-0.0352097  c0.0109291-0.0038147,0.0214195-0.0084229,0.0323067-0.0123138c0.261692-0.0933151,0.5170059-0.2032928,0.7605133-0.3405762  c0.0400391-0.0225754,0.0793152-0.0464706,0.1186523-0.0702591h0.0014496  c0.1521225,0.1831131,0.2978401,0.360054,0.3931503,0.580452c0.0967445,0.2238235,0.1590691,0.463089,0.215107,0.6999283  c0.1199074,0.5068741,0.2142258,1.0279846,0.264637,1.546669C60.2359581,91.1433411,60.2389412,91.4743881,60.0073929,91.7025146z   M64.26474,85.2051086c-0.0038147,0.0819092-0.006752,0.1638947-0.0111542,0.2457428  c-0.017868,0.3310471-0.022171,0.6802902-0.0967484,1.0046082c-0.0124588,0.0543747-0.0304413,0.1564178-0.1034698,0.1513443  c-0.0718117-0.0049667-0.1307182-0.1216736-0.1611633-0.1748428c-0.170536-0.2982788-0.2755547-0.6398087-0.3861961-0.9634628  c-0.0298996-0.0874252-0.0578346-0.1755829-0.0867462-0.263382c-0.2046051-0.6212921-0.386776-1.2508163-0.5542679-1.8828278  c-0.1860886-0.7022324-0.3794708-1.4173813-0.3913803-2.1479721c-0.0136757-0.8372574,0.0308914-1.6777115,0.0498657-2.5147552  c0.0158806-0.7027893,0.0404816-1.4064636,0.0848236-2.1081467c0.0116882-0.1576385,0.0200806-0.3172607,0.0476494-0.4732437  c0.0124702-0.0702667,0.0396042-0.189621,0.0910072-0.0689392c0.0009651,0.002243,0.0016251,0.0046768,0.0025749,0.0069427  c0.060688,0.1449203,0.0933762,0.3080215,0.1342125,0.458786c0.1045723,0.3859787,0.2006569,0.7742767,0.2980614,1.1621323  c0.1752815,0.6986008,0.3417473,1.4021606,0.4849281,2.1080399c0.1607246,0.7919235,0.3044586,1.5868225,0.4598885,2.3797379  c0.0672836,0.3437271,0.1470413,0.674881,0.1629257,1.0261078c0.017868,0.3946991,0.0112534,0.7907181,0.0044098,1.1856232  c-0.0041962,0.2435226-0.0126953,0.4870605-0.0229568,0.7304916C64.2690582,85.1131134,64.2668762,85.1591034,64.26474,85.2051086z   M34.5039406,83.1509781c0.0158844-0.3512268,0.0956421-0.6823807,0.1629295-1.0261078  c0.1554298-0.7929153,0.29916-1.5878143,0.4598885-2.3797379c0.1431808-0.7058792,0.3096428-1.4094391,0.4849243-2.1080399  c0.0974045-0.3878555,0.1934891-0.7761536,0.2980652-1.1621323c0.0408325-0.1507645,0.0735207-0.3138657,0.1342125-0.458786  c0.0009499-0.0022659,0.0016098-0.0046997,0.0025711-0.0069427c0.0514069-0.1206818,0.078537-0.0013275,0.0910072,0.0689392  c0.0276871,0.155983,0.036068,0.3156052,0.0476494,0.4732437c0.044342,0.701683,0.068943,1.4053574,0.0848274,2.1081467  c0.0189743,0.8370438,0.0635376,1.6774979,0.0498619,2.5147552c-0.0119095,0.7305908-0.2052917,1.4457397-0.3913803,2.1479721  c-0.167511,0.6320724-0.3496971,1.2616501-0.5543213,1.8829956c-0.0288963,0.087738-0.0568123,0.1758423-0.0866928,0.2632141  c-0.1106415,0.3236542-0.2156601,0.665184-0.3861961,0.9634628c-0.0304451,0.0531693-0.0893517,0.1698761-0.1611633,0.1748428  c-0.0730247,0.0050735-0.0910072-0.0969696-0.1034698-0.1513443c-0.0745735-0.3243179-0.0788765-0.6735611-0.0967445-1.0046082  c-0.0044022-0.0817871-0.0073395-0.1637039-0.0111427-0.2455673c-0.00214-0.0460587-0.0043297-0.0921097-0.0062752-0.1381912  c-0.0102692-0.2434311-0.0187645-0.486969-0.0229607-0.7304916C34.492691,83.9416962,34.4860725,83.5456772,34.5039406,83.1509781z   M31.9482479,13.8218851c0.0119171-0.5130558,0.0870342-1.0257826,0.2130146-1.5229559  c0.1267471-0.5002642,0.3107491-0.9864025,0.5351181-1.450922c0.2058372-0.4259062,0.4444427-0.842885,0.7687569-1.1904755  c0.3603897-0.3863106,0.7812271-0.7244139,1.1943398-1.0521479c0.4242592-0.3364477,0.8645058-0.6499491,1.3295746-0.9276047  c0.4672737-0.2789755,0.9536362-0.5255256,1.4409943-0.7672148c0.2312126-0.1146131,0.4631996-0.2303305,0.7008057-0.331377  c0.1206818-0.0514054,0.2561378-0.1122975,0.3904991-0.1149435c0.2855339-0.0057225,0.159153,0.2723908,0.0635262,0.4253678  c-0.2465363,0.2365117-0.4638596,0.5117569-0.6754074,0.7623534c-0.3928146,0.4654016-0.7760353,0.9396296-1.1527519,1.4181595  c-0.4036255,0.5127268-0.8102303,1.0236893-1.2072449,1.5414858c-0.4030762,0.5256329-0.8059349,1.0512667-1.1987495,1.5846157  c-0.4094734,0.5559645-0.807476,1.1194363-1.2048149,1.6841202c-0.0331802,0.0471706-0.0716934,0.0895538-0.0954514,0.1384411  l-0.0185165,0.0238342c-0.0632095,0.0987234-0.1311569,0.1943636-0.2020874,0.2876883  c-0.1281776,0.1685562-0.2668343,0.3439541-0.4374924,0.4721336c-0.0781021,0.0586834-0.1806908,0.1188011-0.2710304,0.0495272  c-0.0638962-0.0489883-0.0962868-0.1331625-0.1161842-0.21597c0.0002289-0.0003767,0.0004578-0.000761,0.0006866-0.0011377  l-0.0006981,0.0010843c-0.0088139-0.0366945-0.0154247-0.0731325-0.0208111-0.1060829  C31.9462624,14.2972174,31.9428425,14.0569563,31.9482479,13.8218851z M60.3470383,6.4729562  c0.2210655,0.0400405,0.4323082,0.1556501,0.6328545,0.2516203c0.3053398,0.146163,0.6082497,0.2969589,0.9096184,0.4511747  c0.5421791,0.2774334,1.0739899,0.5772538,1.5732574,0.926722c0.5157051,0.3609343,1.0054855,0.760704,1.4750824,1.1795549  c0.4270096,0.3809032,0.7583847,0.7990942,1.0269928,1.3049803c0.2781982,0.524085,0.5014725,1.0811605,0.6526031,1.6551085  c0.1517868,0.5764866,0.2363968,1.1777906,0.2288971,1.7744617c-0.0011597,0.0891094,0.0059814,0.399972-0.0547638,0.6241751  l-0.0038147-0.0058908c0.001236,0.0020533,0.0025024,0.0040932,0.0037384,0.0061474  c-0.0437164,0.16115-0.1223145,0.27777-0.2655029,0.2333469c-0.1787033-0.055378-0.3311539-0.2592278-0.4436722-0.3943634  c-0.115448-0.1386089-0.2184677-0.2862062-0.3207321-0.4344635c-0.0000534-0.0009356-0.0001144-0.0018787-0.0001678-0.0028143  l0.0000381,0.0026255c-0.0443497-0.0642986-0.0886459-0.1286573-0.1336136-0.1925726  c-0.396904-0.5640173-0.794899-1.1263847-1.2039337-1.6816902c-0.3900604-0.5296059-0.7905998-1.0513744-1.1908073-1.5733652  c-0.3951302-0.5153723-0.7996445-1.0241261-1.201725-1.5340929c-0.3837738-0.486805-0.7740555-0.9690781-1.1739311-1.4427543  c-0.2017517-0.2390094-0.4099121-0.496985-0.6434517-0.7223134c-0.0577812-0.0872173-0.1348801-0.2144208-0.1265297-0.3162751  C60.0976181,6.4579554,60.2541504,6.4560838,60.3470383,6.4729562z"/></svg>